<?xml version="1.0" standalone="no"?>
<!DOCTYPE svg PUBLIC "-//W3C//DTD SVG 1.1//EN" "http://www.w3.org/Graphics/SVG/1.1/DTD/svg11.dtd" >
<!--
2013-9-30: Created.
-->
<svg>
<metadata>
Created by iconfont
</metadata>
<defs>

<font id="iconfont" horiz-adv-x="1024" >
  <font-face
    font-family="iconfont"
    font-weight="500"
    font-stretch="normal"
    units-per-em="1024"
    ascent="896"
    descent="-128"
  />
    <missing-glyph />
    
    <glyph glyph-name="login-user" unicode="&#58884;" d="M541.636727 896q29.636727 0 58.762475-6.642715t54.674651-17.884232 45.477046-25.548902 31.169661-28.61477q26.570858-32.702595 38.834331-72.047904t17.373253-75.113772q5.10978-40.878244 5.10978-82.778443 7.153693-5.10978 11.241517-13.285429 4.087824-7.153693 6.642715-18.39521t0.510978-27.592814q-2.043912-21.461078-8.686627-34.235529t-14.818363-19.928144q-9.197605-8.175649-19.417166-11.241517-5.10978-17.373253-10.219561-32.702595-5.10978-13.285429-11.752495-26.05988t-14.818363-19.928144q-19.417166-15.329341-31.680639-26.05988t-16.351297-36.279441q-3.065868-15.329341-2.043912-31.169661t8.686627-31.680639 23.50499-30.147705 44.45509-25.548902q25.548902-10.219561 55.696607-18.39521t58.762475-18.906188 50.586826-26.570858 31.169661-43.433134q5.10978-16.351297 7.664671-40.367265t2.55489-48.542914-3.576846-45.988024-10.730539-32.702595q-5.10978-7.153693-29.125749-14.307385t-59.273453-13.796407-78.690619-11.752495-87.377246-8.686627-84.311377-5.620758-70.003992-2.043912-68.982036 2.043912-81.245509 5.620758-83.289421 8.175649-75.113772 9.708583-57.229541 10.219561-29.636727 10.219561q-10.219561 8.175649-15.840319 50.075848t4.598802 108.327345q5.10978 37.812375 30.147705 57.740519t58.251497 31.680639 68.982036 20.9501 63.361277 26.570858q21.461078 13.285429 32.702595 25.548902t16.351297 24.526946 5.10978 25.548902-1.021956 29.636727q-2.043912 23.50499-16.351297 37.301397t-31.680639 28.103792q-8.175649 7.153693-14.307385 19.928144t-11.241517 26.05988q-5.10978 15.329341-10.219561 32.702595-7.153693 2.043912-14.307385 7.153693-6.131737 5.10978-13.285429 14.307385t-12.263473 26.570858q-6.131737 17.373253-4.598802 31.680639t5.620758 24.526946q4.087824 11.241517 13.285429 21.461078-1.021956 38.834331 4.087824 77.668663 4.087824 32.702595 14.818363 70.51497t32.191617 67.449102q19.417166 28.61477 43.433134 46.499002t49.053892 28.103792 50.075848 13.796407 48.542914 3.576846z"  horiz-adv-x="1024" />

    
    <glyph glyph-name="wenjianjiai" unicode="&#58880;" d="M845.645 678.089l-306.929 0c-30.246 0-55.806 19.156-55.806 41.854 0 53.844-50.083 97.66-111.611 97.66l-195.318 0c-61.555 0-111.611-43.816-111.611-97.66l0-767.322 27.903 0 0-27.902 837.078 0 0 27.902 27.903 0 0 613.858c0.001 61.555-50.083 111.61-111.61 111.61zM175.982 761.797l195.318 0c30.247 0 55.805-19.155 55.805-41.854 0-53.844 50.056-97.659 111.612-97.659l306.928 0c30.763 0 55.805-25.042 55.805-55.806l-781.273 0 0 153.465c0 22.699 25.56 41.854 55.806 41.854zM901.45 510.674l0-530.15-781.274 0 0 530.15 781.274 0z"  horiz-adv-x="1024" />

    
    <glyph glyph-name="weather-sunny" unicode="&#58911;" d="M512.027119 651.852444c-147.784773 0-267.971894-120.18629-267.971894-267.856537 0-147.72039 120.187121-267.960914 267.971894-267.960914 147.672205 0 267.913563 120.240525 267.913563 267.960914C779.940682 531.666154 659.699324 651.852444 512.027119 651.852444zM512.027119 179.33057399999996c-112.794454 0-204.672695 91.795683-204.672695 204.665333 0 112.818485 91.878242 204.559932 204.672695 204.559932 112.878368 0 204.622551-91.741447 204.622551-204.559932C716.64967 271.126256 624.905487 179.33057399999996 512.027119 179.33057399999996zM512.027119 698.393433c8.771117 0 15.798448 7.081279 15.798448 15.848966L527.825567 815.875125c0 8.766664-7.027332 15.85306-15.798448 15.85306-8.713809 0-15.820962-7.086395-15.820962-15.85306l0-101.631702C496.206157 705.474712 503.313309 698.393433 512.027119 698.393433zM333.158146 662.078343c2.919612-5.056156 8.260466-7.924483 13.657604-7.924483 2.696522 0 5.455469 0.729617 7.928901 2.13871 7.58915 4.381797 10.201757 13.995759 5.76145 21.638833l-50.736577 87.972611c-4.356393 7.643074-14.05057 10.17064-21.639719 5.789866-7.58915-4.445242-10.176174-14.054087-5.790104-21.643949L333.158146 662.078343zM233.883144 562.8657370000001l-88.029429 50.704822c-7.534912 4.38589-17.234206 1.798972-21.586505-5.734608-4.38607-7.585769-1.803139-17.258059 5.78601-21.585621l87.975192-50.872644c2.50311-1.464351 5.229309-2.134617 7.900248-2.134617 5.421698 0 10.764599 2.922563 13.715935 7.979742C244.055225 548.7021560000001 241.413963 558.421518 233.883144 562.8657370000001zM197.537912 383.995907c0 8.717546-7.111246 15.798824-15.90897 15.798824l-101.577535 0c-8.742463 0-15.765701-7.082302-15.765701-15.798824 0-8.81783 7.023238-15.790638 15.765701-15.790638l101.577535 0C190.425643 368.20526900000004 197.537912 375.17807700000003 197.537912 383.995907zM218.028412 232.50975000000005l-87.975192-50.760081c-7.58915-4.384867-10.17208-14.054087-5.78601-21.642926 2.918589-5.115508 8.202135-7.979742 13.686258-7.979742 2.666845 0 5.396115 0.729617 7.900248 2.193968l88.029429 50.809199c7.529796 4.334725 10.171057 14.054087 5.76145 21.585621C235.258524 234.30462899999998 225.563324 236.89154799999994 218.028412 232.50975000000005zM354.744652 111.59486700000002c-7.534912 4.334725-17.200435 1.743714-21.586505-5.785773l-50.819468-87.976704c-4.38607-7.529487-1.799046-17.194614 5.790104-21.638833 2.528693-1.463328 5.228286-2.079358 7.924808-2.079358 5.425792 0 10.821906 2.75474 13.714912 7.869225l50.736577 87.917352C364.945386 97.59808399999997 362.333801 107.21204599999999 354.744652 111.59486700000002zM512.027119 69.49809600000003c-8.713809 0-15.820962-7.086395-15.820962-15.854083l0-101.577466c0-8.713452 7.107153-15.795754 15.820962-15.795754 8.771117 0 15.798448 7.082302 15.798448 15.795754l0 101.577466C527.825567 62.411700999999994 520.798236 69.49809600000003 512.027119 69.49809600000003zM690.870507 105.80807000000004c-4.356393 7.588839-14.080247 10.225899-21.611066 5.785773-7.58915-4.381797-10.176174-13.996782-5.794197-21.694091l50.794908-87.917352c2.893005-5.114484 8.293213-7.869225 13.686258-7.869225 2.641262 0 5.425792 0.617054 7.924808 2.079358 7.564589 4.445242 10.14752 14.109346 5.79522 21.638833L690.870507 105.80807000000004zM893.941663 181.74967000000004l-87.971098 50.760081c-7.506259 4.327562-17.234206 1.794879-21.586505-5.79396-4.444401-7.53051-1.799046-17.249873 5.78601-21.585621l87.920954-50.809199c2.581907-1.464351 5.283546-2.193968 7.953462-2.193968 5.455469 0 10.793253 2.864234 13.690351 7.979742C904.147514 167.69558199999994 901.590167 177.36480300000005 893.941663 181.74967000000004zM943.918916 399.794731l-101.577535 0c-8.797724 0-15.825055-7.082302-15.825055-15.798824 0-8.81783 7.027332-15.790638 15.825055-15.790638l101.577535 0c8.709716 0 15.796402 6.971785 15.796402 15.790638C959.715317 392.713452 952.628632 399.794731 943.918916 399.794731zM798.071341 533.243069c2.700616 0 5.425792 0.670266 7.900248 2.134617l87.971098 50.872644c7.648504 4.327562 10.205851 13.999852 5.794197 21.585621-4.330809 7.588839-14.054663 10.229992-21.643813 5.734608l-87.920954-50.704822c-7.585056-4.444219-10.230411-14.163581-5.78601-21.642926C787.278088 536.165632 792.590288 533.243069 798.071341 533.243069zM669.259442 656.2925700000001c2.474456-1.409093 5.224192-2.13871 7.924808-2.13871 5.396115 0 10.793253 2.868327 13.686258 7.924483l50.820491 87.971587c4.38607 7.589862 1.769369 17.199731-5.76145 21.643949-7.530819 4.380774-17.313004 1.853208-21.644836-5.789866l-50.819468-87.972611C659.082245 670.2873050000001 661.669269 660.674367 669.259442 656.2925700000001z"  horiz-adv-x="1024" />

    
    <glyph glyph-name="radiochecked" unicode="&#59464;" d="M512 896c-282.76736 0-512-229.23264-512-512s229.23264-512 512-512 512 229.23264 512 512-229.23264 512-512 512zM512 0c-212.0704 0-384 171.9296-384 384s171.9296 384 384 384c212.0704 0 384-171.9296 384-384s-171.9296-384-384-384zM320 384c0 106.04544 85.95456 192 192 192s192-85.95456 192-192c0-106.04544-85.95456-192-192-192s-192 85.95456-192 192z"  horiz-adv-x="1024" />

    
    <glyph glyph-name="signout" unicode="&#58906;" d="M527.034926-46.62055099999998c-247.174496 0-447.543989 200.370517-447.543989 447.538873 0 190.783161 119.585609 353.238137 287.701514 417.622516l0-69.242014c-131.960451-60.646242-223.765343-193.624882-223.765343-348.381525 0-211.845872 171.759899-383.606795 383.606795-383.606795 211.845872 0 383.605771 171.762969 383.605771 383.606795 0 154.75562-91.811032 287.736307-223.771483 348.411201L686.868191 818.540837c168.113859-64.384379 287.702538-226.840378 287.702538-417.622516C974.573799 153.74996599999997 774.203282-46.62055099999998 527.034926-46.62055099999998L527.034926-46.62055099999998zM495.066841 848.461287l63.931055 0L558.997895 399.768125l-63.931055 0L495.066841 848.461287 495.066841 848.461287z"  horiz-adv-x="1024" />

    
    <glyph glyph-name="radiounchecked" unicode="&#59421;" d="M512 896C229.216 896 0 666.784 0 384s229.216-512 512-512 512 229.216 512 512S794.784 896 512 896zM512 0c-212.064 0-384 171.936-384 384 0 212.064 171.936 384 384 384 212.064 0 384-171.936 384-384C896 171.936 724.064 0 512 0z"  horiz-adv-x="1024" />

    
    <glyph glyph-name="link" unicode="&#58894;" d="M915.7498558 502.01166255c-34.84829395 34.84829395-81.17078575 54.03336826-130.44037959 54.02800274L589.64950346 556.04145339c-49.25886164 0.02444458-95.5932783-19.1832856-130.42130053-54.01130782-44.59942488-44.59942488-63.1507201-108.13053128-49.64878748-169.98686446 2.05277538-9.36955195 7.70789509-17.01961381 15.22678881-21.78159954 7.42230632-4.74529197 16.64876646-6.65855291 25.95571569-4.61591252 9.34212602 2.04919797 16.95939526 7.65840874 21.72078611 15.12543193 4.7745066 7.4527142 6.72830984 16.73164088 4.68090057 26.05170707-8.45316604 38.70402991 3.12537004 78.43713082 30.9800371 106.29179789 21.78100349 21.78100349 50.71840137 33.76437105 81.5058603 33.75006204l195.66414679-0.00596212c30.79699846 0.01669374 59.74691724-11.98873366 81.52136197-33.7631784 44.94940448-44.94940448 44.95894402-118.0921268 0.0196751-163.03139571-21.77981083-21.77981083-50.72436352-33.75840892-81.52434275-33.76854449l-92.82563868-0.01013558c-9.78571107-0.00536609-18.60256969-4.05606497-24.90816223-10.58106501-6.002714-6.22450681-9.67004519-14.66515254-9.6807774-24.0078746 0.00059662-9.55080191 3.8813732-18.18819926 10.14105679-24.44788285 6.26445305-6.26445305 14.90185042-10.1452308 24.44251674-10.13569068l92.82563869 0.01013558c49.26064975-0.02384853 95.59685569 19.17851613 130.44455302 54.02621344C987.68345039 313.06449797000005 987.6745069 430.08701145 915.7498558 502.01166255zM639.27384578 411.10584299c-2.03369632 9.38505363-7.68881602 17.03869288-15.20651767 21.79710119-7.41753742 4.74290723-16.6690376 6.63947386-25.95690837 4.6171052-9.33437519-2.05456465-16.95820318-7.65840874-21.71422734-15.13079744-4.78106478-7.44854017-6.73367593-16.72508271-4.68567004-26.04574436 8.45733948-38.71058866-3.12119661-78.44249635-30.97705634-106.29835606-21.7792148-21.7792148-50.72197819-33.75840892-81.5255354-33.76735183L263.54378442 256.28137592999997c-30.77732393 0.00536609-59.74453192 11.98873366-81.52076592 33.76496766-44.94880786 44.94880786-44.93747962 118.11120587-0.00059604 163.04808945 21.78100349 21.78100349 50.71899742 33.76496708 81.52493936 33.76914112l92.82086863 0.01490562c9.76543994-0.01490505 18.60733974 4.05248815 24.91054696 10.57629496 5.98423155 6.20363904 9.66646838 14.67111468 9.6772 24.01145201 0 9.55259062-3.88196923 18.18879531-10.13688334 24.44370942-6.26922312 6.26922312-14.89946568 10.14523021-24.4472868 10.14046072l-92.82444545-0.01013557c-49.2600543 0.02563724-95.59208564-19.18209294-130.44097621-54.03098351-71.91213079-71.91213079-71.9228624-188.95551146 0.00059663-260.87897047 34.84829395-34.84829395 81.16542023-54.03157897 130.45468859-54.00534569l195.66056996 0c49.2600543-0.02563724 95.59804777 19.17851613 130.4242813 54.00474964C634.24773568 285.72973162999995 652.79545348 349.26560868 639.27384578 411.10584299z"  horiz-adv-x="1024" />

    
    <glyph glyph-name="arrow-right" unicode="&#58883;" d="M347.687 751.812l-52.761-52.238 313.928-316.082-316.568-313.42 52.314-52.673 369.322 365.663z"  horiz-adv-x="1024" />

    
    <glyph glyph-name="warning" unicode="&#58885;" d="M559.652811 129.36969499999998c-12.925381-12.961196-28.559453-19.407002-46.729278-19.407002-18.171871 0-34.18252 6.445806-47.176462 19.407002-13.440104 13.026688-19.885909 28.592198-19.885909 47.175439 0 18.171871 6.445806 34.250058 19.885909 47.176462 12.993942 13.473873 29.004591 19.953448 47.176462 19.953448 18.169825 0 33.770128-6.478552 46.729278-19.953448 13.473873-12.926404 19.919678-29.004591 19.919678-47.176462C579.57249 157.96189400000003 573.126684 142.39638300000001 559.652811 129.36969499999998zM464.924333 574.351326c12.514012 13.406335 28.594245 20.331048 47.999201 20.331048 19.473517 0 35.518958-6.479575 48.067762-20.331048 12.135388-13.405311 18.581194-30.308283 18.581194-50.6731 0-17.279548-25.987884-145.847739-35.005258-239.34211l-62.774719 0c-7.371898 93.529163-35.930327 222.097354-35.930327 239.34211C445.862185 543.598928 452.342784 560.5008760000001 464.924333 574.351326zM940.146709 137.186731L590.407256 747.456872c-42.822294 74.432223-112.557542 74.432223-155.344021 0L85.322759 137.186731c-42.787502-74.398454-7.817036-135.426389 77.895091-135.426389l699.44616 0C947.930999 1.760342000000037 983.002772 62.78725399999996 940.146709 137.186731z"  horiz-adv-x="1024" />

    
    <glyph glyph-name="arrow-point" unicode="&#58966;" d="M474.288097 768.950396L857.759815 387.0208l-82.171488-81.8471L392.115586 687.105343 474.288097 768.950396zM857.759815 387.0208L474.288097 5.089157999999998l-82.173534 81.84096L775.588327 468.865853 857.759815 387.0208zM435.55391 444.891835c32.088836 0 58.105373-25.908066 58.105373-57.871035 0-31.958876-26.016537-57.866942-58.105373-57.866942-32.090882 0-58.105373 25.908066-58.105373 57.866942C377.449561 418.983769 403.463028 444.891835 435.55391 444.891835zM241.8707 444.891835c32.092929 0 58.107419-25.908066 58.107419-57.871035 0-31.958876-26.013467-57.866942-58.107419-57.866942-32.088836 0-58.102303 25.908066-58.102303 57.866942C183.768397 418.983769 209.781864 444.891835 241.8707 444.891835z"  horiz-adv-x="1024" />

    
    <glyph glyph-name="file" unicode="&#59042;" d="M754.876 671.114c-1.317 0-2.606-0.098-3.872-0.283l-479.554 0c-1.263 0.185-2.552 0.283-3.867 0.283-14.871 0-26.925-12.058-26.925-26.93s12.053-26.927 26.925-26.927l0-0.278 487.293 0.278c14.873 0 26.925 12.056 26.925 26.927s-12.052 26.93-26.925 26.93zM754.876 461.804c-1.317 0-2.606-0.098-3.872-0.278l-479.554 0c-1.263 0.181-2.552 0.278-3.867 0.278-14.871 0-26.925-12.053-26.925-26.925 0-14.873 12.053-26.927 26.925-26.927l0-0.278 487.293 0.278c14.873 0 26.925 12.053 26.925 26.927 0 14.872-12.052 26.925-26.925 26.925zM499.08 258.33500000000004c-1.314 0-2.603-0.098-3.867-0.277l-224.381 0c-1.261 0.178-2.552 0.277-3.864 0.277-14.873 0-26.927-12.052-26.927-26.925 0-14.869 12.053-26.93 26.927-26.93l0-0.272 232.113 0 0 0.272c14.873 0 26.934 12.061 26.934 26.93 0 14.873-12.061 26.925-26.934 26.925zM917.298 776.9110000000001c0 41.772-33.98 75.759-75.759 75.759l-660.195 0c-41.777 0-75.759-33.986-75.759-75.759l0-792.331c0-41.766 33.986-75.755 75.759-75.755l435.201 0c7.256-0.309 14.625 2.278 20.166 7.828l0.202-0.197 272.427 272.432-0.197 0.197c5.227 5.231 7.861 12.084 7.88 18.937l0.277 0 0 326.958 0.061 0 0 53.857-0.061 0 0 188.074zM617.814-26.482999999999947l0 223.083 223.073 0-223.072-223.083zM864.704 249.39099999999996c-2.063 0.502-4.214 0.778-6.431 0.778l0 0.286-267.674 0c-14.864 0-26.925-12.061-26.925-26.93 0-0.042 0.009-0.075 0.009-0.122 0-0.052-0.009-0.108-0.009-0.164 0-1.313 0.098-2.597 0.281-3.863l0-256.832-393.832 0c-5.967 0-10.823 4.852-10.823 10.819l0 814.769c0 5.967 4.856 10.821 10.823 10.821l683.757 0c5.972 0 10.823-4.856 10.823-10.821z"  horiz-adv-x="1024" />

    
    <glyph glyph-name="copyright" unicode="&#59093;" d="M678.61318 482.17088l-33.552164-21.125133c-28.999474 38.523385-68.765153 57.784054-119.296013 57.784054-39.764656 0-73.113181-12.737092-100.033297-38.2123-26.930349-25.475208-40.387849-57.066717-40.387849-94.754061 0-37.697577 13.251815-70.007447 39.765679-96.928586 26.503631-26.930349 60.054771-40.386826 100.655468-40.386826 48.463782 0 88.22946 19.260669 119.296013 57.783031l33.552164-22.367427c-16.572444-24.02723-38.83447-42.463114-66.793242-55.29742s-58.095139-19.261693-90.403986-19.261693c-50.949392 0-93.50972 16.776082-127.684054 50.328245s-51.260477 74.346265-51.260477 122.402771c0 48.872081 17.290805 90.609671 51.881624 125.199467 34.580586 34.58161 79.006402 51.881624 133.275399 51.881624 31.891338 0 61.404512-6.835685 88.539522-20.503986C643.29479 525.043317 664.108838 506.189923 678.61318 482.17088zM510.5423 703.715649c-176.401616 0-319.40354-143.002948-319.40354-319.404564 0-176.403662 143.001925-319.40354 319.40354-319.40354 176.404686 0 319.404564 142.999878 319.404564 319.40354C829.946864 560.7127009999999 686.946986 703.715649 510.5423 703.715649zM510.543324 113.54733499999998c-149.539828 0-270.764773 121.223922-270.764773 270.76375 0 149.537781 121.224945 270.764773 270.764773 270.764773 149.538805 0 270.76375-121.226992 270.76375-270.764773C781.307074 234.771257 660.082128 113.54733499999998 510.543324 113.54733499999998z"  horiz-adv-x="1024" />

    
    <glyph glyph-name="jujue" unicode="&#58901;" d="M512 768c-212.0832 0-384-171.9296-384-384.0064C128 171.9168 299.9168 0 512 0s384 171.9168 384 383.9936C896 596.0704 724.0832 768 512 768L512 768zM512 63.9936c-176.7296 0-320 143.2704-320 320C192 560.7296 335.2704 704 512 704c176.7232 0 320-143.2704 320-320.0064C832 207.264 688.7232 63.9936 512 63.9936L512 63.9936zM640 448 383.9936 448C348.6528 448 320 419.3408 320 383.9936 320 348.6528 348.6528 320 383.9936 320L640 320c35.3472 0 64 28.6528 64 63.9936C704 419.3408 675.3472 448 640 448L640 448zM640 448"  horiz-adv-x="1024" />

    
    <glyph glyph-name="login-pwd" unicode="&#58956;" d="M768.9216 473.27232L372.06016 473.27232C378.88 530.78016 329.37984 764.57984 512.2048 770.27328c173.83424 6.59456 146.78016-213.34016 146.78016-213.34016l85.13536-0.57344c0 0 24.73984 294.4-231.91552 295.8336C232.09984 837.98016 297.82016 518.81984 289.28 473.27232c1.98656 0 4.56704 0 7.29088 0-55.88992 0-101.21216-45.34272-101.21216-101.21216l0-337.38752c0-55.88992 45.34272-101.21216 101.21216-101.21216l472.35072 0c55.88992 0 101.21216 45.34272 101.21216 101.21216L870.13376 372.06016C870.13376 427.9296 824.79104 473.27232 768.9216 473.27232zM566.4768 178.97472000000005l0-76.84096c0-18.57536-15.1552-33.73056-33.73056-33.73056-18.57536 0-33.73056 15.1552-33.73056 33.73056l0 76.84096c-20.09088 11.69408-33.73056 33.21856-33.73056 58.12224 0 37.2736 30.208 67.4816 67.4816 67.4816 37.2736 0 67.4816-30.208 67.4816-67.4816C600.22784 212.19327999999996 586.58816 190.66880000000003 566.4768 178.97472000000005z"  horiz-adv-x="1024" />

    
    <glyph glyph-name="gaowenbaojing" unicode="&#58940;" d="M514.660084 886.903831c-278.376125 0-504.046864-225.732138-504.046864-504.243339 0-278.461059 225.670739-504.243339 504.046864-504.243339 278.389428 0 504.046864 225.78228 504.046864 504.243339C1018.707972 661.171694 793.049512 886.903831 514.660084 886.903831zM516.827447-43.978375c-234.147808 0-427.597705 190.742229-427.597705 425.972695 0 235.230466 190.633758 425.924599 425.775196 425.924599 235.157811 0 425.777243-190.694133 425.777243-425.924599C940.781158 146.764877 750.973208-43.978375 516.827447-43.978375zM590.199525 312.950827l1.575892 345.562317c0 42.371016-34.349319 76.720336-76.708056 76.720336-42.358737 0-76.757175-34.349319-76.757175-76.720336l0-341.674777c-47.600111-26.082028-79.844489-76.621075-79.844489-134.740774 0-84.742033 68.685335-153.440671 153.416112-153.440671 84.71645 0 153.390529 68.699662 153.390529 153.440671C665.272337 237.56079 634.220111 285.984662 590.199525 312.950827zM511.881808 54.247764c-70.606081 0-127.839597 57.232492-127.839597 127.850853 0 53.639664 33.081443 99.408057 79.895655 118.452809l0 357.962741c0 28.222785 22.89443 51.131541 51.129494 51.131541 28.235065 0 48.781006-22.908756 48.781006-51.131541l0-361.063359c43.305295-20.472264 75.859735-64.221674 75.859735-115.352191C639.708102 111.479233 582.47561 54.247764 511.881808 54.247764zM540.620339 279.832546 540.620339 460.094072l-52.692083 0 0-178.292686c-45.694715-10.235109-78.320787-50.884924-78.320787-99.70277 0-56.493665 45.790906-103.886045 102.274338-103.886045 56.469106 0 102.258988 47.39238 102.258988 103.886045C614.139773 228.554672 583.014892 267.33286 540.620339 279.832546zM639.435902 355.273748l76.794014 0 0 27.092032-76.794014 0L639.435902 355.273748zM639.435902 556.868139l76.794014 0 0 27.189246-76.794014 0L639.435902 556.868139zM639.435902 608.072335l76.794014 0 0 27.164686-76.794014 0L639.435902 608.072335zM639.435902 507.286907l76.794014 0.738827 0 25.539676-76.794014 0L639.435902 507.286907zM639.435902 406.428825l76.794014 0 0 25.565259-76.794014 0L639.435902 406.428825zM639.435902 457.584925l76.794014 0 0 25.588795-76.794014 0L639.435902 457.584925z"  horiz-adv-x="1024" />

    
    <glyph glyph-name="arrow-more" unicode="&#59058;" d="M926.208 529.436672L512 290.29376 97.792 529.436672c-12.243968 7.069696-27.900928 2.875392-34.970624-9.3696-7.069696-12.243968-2.874368-27.900928 9.370624-34.9696l427.008-246.53312c3.960832-2.286592 8.380416-3.4304 12.8-3.4304s8.839168 1.143808 12.8 3.4304l427.008 246.53312c12.244992 7.068672 16.439296 22.725632 9.370624 34.9696C954.108928 532.31104 938.451968 536.5053439999999 926.208 529.436672z"  horiz-adv-x="1024" />

    
    <glyph glyph-name="deliver" unicode="&#58998;" d="M623.66459904-80.70637795000005c-8.26713885 0-16.30140189 3.95891143-21.30826013 10.82878862l-0.11643904 0.23287694L428.97929102 206.66404066999996c-0.11643904 0.11643904-0.23287694 0.23287694-0.34931598 0.23287695l-353.15821682 25.84936448-0.34931598 0c-10.82878862 1.39726279-19.79455829 9.43152469-22.35620807 20.14387427-2.56164864 10.47947264 1.74657877 21.65757611 10.59591054 27.82882134l771.17272406 488.69272576 0.11643904 0.11643904c6.98631509 4.65754339 15.71920896 5.93836715 23.52059392 3.14384156 12.92468224-4.7739813 19.79455829-17.58222563 17.11647174-30.27403093l-225.89084785-802.14538695c-2.21233266-10.13015666-10.13015666-18.16441856-20.26031332-20.37675122C627.27419563-80.47350100999995 625.41117781-80.70637795000005 623.66459904-80.70637795000005zM147.66367858 277.10938225999996l297.73345223-20.37675122c0 0 0 0 0.11643904 0l0.11643904 0c7.33563107-0.93150891 13.97263019-4.89042034 18.2808576-10.82878862l0 0c0 0 0 0 0 0L610.6234789 6.389680350000049l202.25381603 685.47392854"  horiz-adv-x="1024" />

    
    <glyph glyph-name="alarmHd" unicode="&#59958;" d="M921.14062499 36.19270832999996l0-52.734375L130.12499999-16.54166667000004l0 52.734375L921.14062499 36.19270832999996zM815.67187499 88.92708332999996L235.59374999 88.92708332999996l0 40.23632813L235.59374999 141.66145832999996 235.59374999 384.2923177C235.59374999 541.28255208 363.31640624 669.00520833 520.25390624 669.00520833 683.15039063 669.00520833 815.67187499 536.48372396 815.67187499 373.63997395L815.67187499 141.66145832999996l0-12.49804688L815.67187499 88.92708332999996zM446.53124999 405.33333333l0-263.671875 316.40625 0L762.93749999 373.63997395C762.93749999 507.42708333 654.09374999 616.27083333 520.25390624 616.27083333 392.37304686 616.27083333 288.32812499 512.22591146 288.32812499 384.2923177L288.32812499 141.66145832999996l105.46875 0L393.79687499 405.33333333 446.53124999 405.33333333zM551.99999999 827.20833333L499.26562499 827.20833333l0-105.46875 52.734375 0L551.99999999 827.20833333zM349.81640624 697.27083333L275.24999999 771.83723958 237.96679686 734.55403646l74.56640627-74.56640626L349.81640624 697.27083333zM771.69140624 734.55403646L734.40820313 771.83723958l-74.56640627-74.56640625 37.28320313-37.28320313L771.69140624 734.55403646z"  horiz-adv-x="1024" />

    
    <glyph glyph-name="weather-cloudy" unicode="&#58917;" d="M603.508015 755.702412l15.238232-86.846322 0.043146 0.00767c0.03164-0.20039 0.054652-0.39982 0.090127-0.60021 2.994337-17.066667 19.258487-28.474487 36.325154-25.48015 17.066667 2.994337 28.474487 19.258487 25.48015 36.325154-0.035476 0.20039-0.081498 0.395985-0.11985 0.594457l0.044105 0.00767-15.239191 86.846322-0.037393-0.006712c-3.164045 16.860524-19.307386 28.085213-36.250367 25.11197-16.942981-2.973243-28.300944-19.022622-25.53576-35.953139L603.508015 755.702412zM1014.528 520.691536c-2.994337 17.066667-19.258487 28.474487-36.325154 25.48015-0.20039-0.035476-0.395985-0.081498-0.595416-0.11985l-0.00767 0.043146-86.846322-15.238232 0.006712-0.037393c-16.860524-3.164045-28.085213-19.307386-25.11197-36.250367 2.973243-16.942981 19.022622-28.300944 35.953139-25.53576l0.006712-0.037393 86.846322 15.239191-0.00767 0.043146c0.20039 0.03164 0.39982 0.054652 0.60021 0.090127C1006.114517 487.361678 1017.522337 503.624869 1014.528 520.691536zM802.257978 627.031251c14.082876-9.878532 33.463131-6.561079 43.47973 7.366472l0.03164-0.022052 50.634307 72.18433-0.036434 0.024929c0.11985 0.163955 0.244494 0.321199 0.360509 0.48803 9.950442 14.185468 6.516974 33.752689-7.668494 43.703131-14.185468 9.950442-33.752689 6.516974-43.703131-7.668494-0.116974-0.166831-0.222442-0.337498-0.335581-0.505288l-0.036434 0.024929-50.634307-72.185288 0.03164-0.022052C784.696569 656.261273 788.175101 636.9097830000001 802.257978 627.031251zM408.890487 620.344569l-0.022052-0.03164 72.185288-50.634307 0.024929 0.036434c0.163955-0.11985 0.321199-0.244494 0.48803-0.360509 14.185468-9.950442 33.752689-6.516974 43.703131 7.668494 9.950442 14.185468 6.516974 33.752689-7.668494 43.703131-0.166831 0.116974-0.337498 0.222442-0.505288 0.335581l0.024929 0.036434-72.185288 50.634307-0.022052-0.03164c-14.159581 9.684854-33.51203 6.206322-43.389603-7.876554C391.645483 649.7414229999999 394.962936 630.36021 408.890487 620.344569zM964.930157 306.347625c-0.166831 0.116974-0.337498 0.222442-0.505288 0.335581l0.025888 0.036434-72.18433 50.634307-0.022052-0.03164c-14.159581 9.684854-33.51203 6.206322-43.389603-7.876554s-6.561079-33.463131 7.366472-43.47973l-0.022052-0.03164 72.185288-50.634307 0.024929 0.036434c0.163955-0.11985 0.321199-0.244494 0.48803-0.360509 14.185468-9.950442 33.752689-6.516974 43.703131 7.668494C982.549094 276.829963 979.115625 296.39622499999996 964.930157 306.347625zM788.77627 360.65222500000004c32.279011 32.199431 48.856689 79.109753 40.378966 127.424719C815.356165 566.717843 740.419116 619.282217 661.779176 605.483146c-50.154906-8.800839-89.691086-42.473948-108.180614-86.112839-39.763416 22.61621-85.759041 35.537019-134.77585 35.537019-112.359071 0-208.850936-67.873558-250.753438-164.849618C74.668584 370.28338599999995 4.575401 287.37582 4.575401 188.08521299999995c0-114.026427 92.436135-206.462562 206.462562-206.462562 2.62424 0 5.236015 0.05561 7.837243 0.152449l436.798322 0 0 0.280929c116.188524 2.617528 209.572914 97.616539 209.572914 214.433079C865.246442 262.376989 835.52839 321.30972299999996 788.77627 360.65222500000004zM670.466876 555.970637c51.29588 9.00027 100.174622-25.285513 109.17585-76.581393 6.198652-35.327041-8.140225-69.501603-34.421933-90.298007-26.02379 12.786577-55.012195 20.461783-85.662202 21.700554-16.385918 30.530157-38.411506 57.578906-64.678831 79.763655C605.459176 528.642876 636.850337 550.07209 670.466876 555.970637zM655.673528 50.45021699999995c0 0-15.670652-0.363386-19.610367 0.089169L210.672659 50.539386000000036c-0.083416 0-0.164914-0.003835-0.24833-0.003835-0.092045 0-0.18409 0.002876-0.276135 0.003835l-1.220554 0 0 0.015341c-77.96015 0.803476-135.159371 58.486891-135.159371 136.636884 0 78.650487 58.005573 136.65606 136.65606 136.65606 0.868674 0 1.732554-0.017258 2.597393-0.032599 5.210127 22.639221 19.811715 49.638112 31.642367 68.853453-0.035476 0.004794-0.070951 0.010547-0.107386 0.015341 12.278412 19.901843 22.012165 31.860974 39.98394 46.66391 0.108345 0.089169 0.218607 0.176419 0.326951 0.265588 0.953049 0.781423 1.913768 1.554217 2.88024 2.319341 0.492824 0.391191 0.986607 0.781423 1.483266 1.168779 0.434337 0.337498 0.872509 0.670202 1.309723 1.003865 35.641528 27.340225 80.227715 43.600539 128.618427 43.600539 94.637543 0 174.751161-62.15239 201.770187-147.862532 10.529558 2.29633 21.460854 3.517843 32.67979 3.517843 10.501753 0 20.755176-1.061393 30.659596-3.080629-0.001918 0.006712-0.002876 0.014382-0.004794 0.021094 3.667416-0.7517 7.283056-1.643386 10.849798-2.653004 0.228195-0.06424 0.45639-0.130397 0.684584-0.195596 0.834157-0.240659 1.666397-0.48803 2.494801-0.742112 0.434337-0.132315 0.867715-0.266547 1.300135-0.402697 0.568569-0.180255 1.133303-0.365303 1.698996-0.551311 0.634727-0.20806 1.268494-0.417079 1.899386-0.633768 0.212854-0.072869 0.42379-0.149573 0.635685-0.223401 59.643206-20.768599 96.697049-71.730816 96.697049-138.451895C800.522547 112.82025499999997 739.035566 51.55763300000001 655.673528 50.45021699999995z"  horiz-adv-x="1024" />

    
    <glyph glyph-name="home" unicode="&#58882;" d="M1012.646039 436.69265L535.153 887.123741c-10.824779 11.426156-28.264701 12.027532-39.690857 0.601377L12.556714 437.895403c-7.216519-6.013766-12.027532-16.237169-12.027532-27.663325 0-19.244052 13.831662-34.278468 30.670208-34.278468l108.849169 0 0-354.812208c0-40.89361 15.034416-78.178961 39.089481-105.240909 24.055065-27.061948 57.130779-43.900494 93.814753-43.900494l117.268442 0 0 144.33039 0 272.423611c0 10.824779 4.209636 21.048182 10.223403 28.264701 6.615143 7.216519 15.635792 12.027532 25.257818 12.027532l174.399221 0c9.622026 0 18.642675-4.811013 25.257818-12.027532 6.615143-7.216519 10.223403-17.439922 10.223403-28.264701l0-416.754 159.966182 0 3.60826 0 4.209636 0c22.250935 0 42.69774 10.223403 57.732156 27.061948 15.034416 16.838545 24.055065 39.690857 24.055065 64.948675L885.154195 375.953611 992.800611 375.953611l0 0c9.020649 0 17.439922 4.209636 23.453688 12.027532C1027.079078 403.015559 1025.274949 424.665117 1012.646039 436.69265zM178.536662 443.307793l1.202753 0 0-0.601377C179.739415 442.706416 179.138039 442.706416 178.536662 443.307793z"  horiz-adv-x="1024" />

    
    <glyph glyph-name="theme" unicode="&#58970;" d="M744.21431187-28.16439749999995H278.74324437c-38.57136 0-69.95120531 31.38080531-69.95120531 69.95120531V443.75234812l-31.79163937-20.33820281c-6.72788625-4.64779969-16.05036281-7.47276281-25.52546063-7.47276281-22.72641469 0-40.90773844 15.10006875-44.22032719 36.74756437l-3.26171531 20.44091063c-5.36675906 33.20364094-12.73681312 78.6823875-12.81456469 106.82739562-0.07679156 27.88775625 23.85620813 54.775305 38.95627688 65.17477969L312.35772031 769.73087813c7.1646375 4.77642469 13.50760687 4.77642469 20.20957594 4.77642468l41.49807281-0.23133375 15.53586 0.05183438c7.31918063 0.97621031 13.73894156-2.69633813 18.66894844-7.60138875a26.32985062 26.32985062 0 0 0 7.80680625-18.618075c0.15358312-52.05304969 41.52398906-92.83216312 94.19329031-92.83216219 52.66930125 0 94.06466438 40.7791125 94.19329031 92.83216219a26.41432125 26.41432125 0 0 0 7.78088813 18.618075c4.955925 4.93000781 11.37568594 8.85980813 18.69486656 7.60138875l15.58769438-0.05183438 41.62669781 0.23133375c6.85651219 0 13.3281075 0 20.31228469-4.82729906l186.43511906-124.418385c24.52429312-17.59098937 34.92472875-37.6978575 34.4879775-65.74015687-0.61625062-6.36888656-10.83718594-95.68304344-16.15307063-127.11472313-3.44121469-20.44091063-23.13724875-35.84910469-45.81278906-35.84910562-8.98747313 0-17.41053 2.51683781-24.39566812 7.31918062l-28.86396656 18.43761469v-400.52762063c0.00288-38.5704-31.37792531-69.95120531-69.94928626-69.95120531z m-509.12697749 546.28537594c4.33967438 0 8.67934781-1.07891906 12.60914718-3.23579719 8.44897406-4.59692531 13.68710719-13.4557725 13.68710719-23.06045719v-450.03791625c0-9.5787675 7.78088812-17.35965562 17.35965563-17.35965562h465.4710675c9.5787675 0 17.35965562 7.78088812 17.35965562 17.35965562V490.28409656a26.30873344 26.30873344 0 0 0 13.66119 23.06045719c8.47393125 4.57100812 18.66894938 4.26288281 26.78388-0.89845969l61.24594125-39.10986c5.39267625 37.10752406 13.61031563 108.77981625 13.71302344 109.57556813-0.02591719 6.70196906-1.05300188 11.24802-11.99289656 19.10569968L685.33066719 721.88983594l-8.55168282-0.05087344c-6.06076125-0.05087437-13.55848125-0.12862594-22.18695468-0.15358313-12.68593875-67.58890969-72.62258625-118.99979156-144.31983657-118.9997925-71.67229312 0-131.60893969 51.41088188-144.31983562 118.9997925-8.57663906 0.02591719-15.99852844 0.10270875-22.0333725 0.15358313l-8.34626531 0.05087344-175.67568375-120.10462782c-6.62517844-4.57100812-15.84494531-16.97473875-16.12715438-21.72524718 0.07679156-23.93395969 7.06192875-67.04945062 12.14647969-98.53296375l1.33521094-8.34626532 63.66006937 40.7791125a26.19162656 26.19162656 0 0 0 14.17569281 4.16113407z"  horiz-adv-x="1024" />

    
    <glyph glyph-name="del-cur" unicode="&#58968;" d="M874.048 21.951999999999998c-199.936-199.936-524.16-199.936-724.096 0-199.936 199.936-199.936 524.16 0 724.096 199.936 199.936 524.16 199.936 724.096 0 199.936-199.936 199.936-524.16 0-724.096zM512 848C255.744 848 48 640.256 48 384s207.744-464 464-464 464 207.744 464 464S768.256 848 512 848z m209.536-684.736c-15.808-15.744-41.344-15.744-57.152 0.064L511.808 315.904 359.424 163.51999999999998c-15.744-15.808-41.344-15.808-57.088-0.064-15.808 15.744-15.744 41.344 0 57.152L454.72 372.99199999999996 302.784 524.928c-15.808 15.808-15.808 41.408-0.064 57.152 15.808 15.744 41.344 15.744 57.152-0.064L511.808 430.08 664 582.2080000000001c15.744 15.808 41.344 15.808 57.088 0.064 15.744-15.808 15.744-41.344 0-57.152L568.896 372.99199999999996l152.576-152.576c15.808-15.808 15.808-41.344 0.064-57.152z"  horiz-adv-x="1024" />

    
    <glyph glyph-name="trash" unicode="&#58974;" d="M944 704H755.2v44.8c0 54.4-44.8 99.2-99.2 99.2H361.6c-54.4 0-99.2-44.8-99.2-99.2V704H83.2c-12.8 0-25.6-9.6-25.6-25.6 0-12.8 9.6-25.6 25.6-25.6H144v-633.6c0-54.4 44.8-99.2 99.2-99.2h550.4c54.4 0 99.2 44.8 99.2 99.2V652.8H944c12.8 0 25.6 9.6 25.6 25.6-3.2 12.8-9.6 25.6-25.6 25.6z m-627.2 44.8c0 25.6 22.4 48 48 48h294.4c25.6 0 48-22.4 48-48V704H316.8v44.8z m524.8-720c0-28.8-16-57.6-41.6-57.6H249.6c-25.6 0-54.4 19.2-54.4 44.8l3.2 636.8h643.2v-624zM368 515.2c-16 0-25.6-9.6-25.6-25.6v-342.4c0-16 12.8-25.6 25.6-25.6s25.6 9.6 25.6 25.6V489.6c-3.2 12.8-9.6 25.6-25.6 25.6z m160 0c-16 0-25.6-9.6-25.6-25.6v-342.4c0-16 12.8-25.6 25.6-25.6s25.6 9.6 25.6 25.6V489.6c-3.2 12.8-9.6 25.6-25.6 25.6z m160 0c-16 0-25.6-9.6-25.6-25.6v-342.4c0-16 12.8-25.6 25.6-25.6s25.6 9.6 25.6 25.6V489.6c-3.2 12.8-9.6 25.6-25.6 25.6z"  horiz-adv-x="1024" />

    
    <glyph glyph-name="help" unicode="&#58969;" d="M881.7664 139.60191999999995C931.28192 211.85023999999999 957.44 296.29952000000003 957.44 384c0 241.59232-199.808 438.12864-445.42976 438.12864S66.56 625.59232 66.56 384s199.82848-438.12864 445.45024-438.12864c78.24384 0 155.18208 20.23936 222.59712 58.55744 142.89408-54.19008 161.55648-45.73696 172.71808-40.66816l4.33152 1.94048 3.6352 3.04128c7.98208 6.71232 16.24064 13.6448 12.89728 38.13376-3.328 24.2688-18.08384 66.47808-46.42304 132.72576z m-70.05184 1.77664l8.00256-18.37056c14.10048-32.36864 28.75904-69.01248 38.49216-96.13824-29.75744 9.02656-70.79424 23.34208-107.5456 37.56032l-16.70144 6.46656-15.16032-9.4464c-61.80352-38.41024-133.31968-58.72128-206.79168-58.72128-213.73952 0-387.62496 171.0336-387.62496 381.27104s173.88544 381.27104 387.62496 381.27104S899.6352 594.23744 899.6352 384c0-82.29376-26.22976-160.62976-75.84256-226.56512l-12.07808-16.05632zM381.34272 452.29056c0.82944 29.66528 2.36544 52.224 8.55552 67.67104 6.1952 15.45216 14.78144 29.25056 28.3904 41.41056 13.6192 12.14976 28.78976 21.10464 45.4912 26.88 16.71168 5.76 34.35008 8.64768 52.92032 8.64768 37.53472 0 68.13696-12.98432 93.09184-35.0208 23.21408-20.5056 32.8704-50.98496 32.8704-86.10304 0-16.49152-2.54976-31.42656-8.93952-44.80512-6.4-13.39904-15.4368-30.08-36.27008-50.06336-20.82816-19.98848-34.65216-34.2016-41.46176-42.63424-6.80448-8.45312-11.97568-18.5344-15.46752-30.2848-3.51232-11.7504-4.63872-11.6224-4.63872-17.80736H481.41312c0 7.8336 1.85344 12.03712 5.57568 25.83552 3.712 13.7984 9.27744 25.86112 16.71168 36.15232 7.424 10.30144 20.83328 25.44128 40.2176 45.42976 19.38944 19.97312 31.88224 34.49856 37.44256 43.56608 5.56032 9.05728 8.35584 22.55872 8.35584 40.4736 0 17.93024-6.4 33.78176-19.18976 47.59552-12.78976 13.79328-31.35488 20.69504-55.69024 20.69504-54.88128 0-82.30912-32.54784-82.30912-97.64352h-51.18464v0.00512zM536.9344 171.10015999999996H480.1792V234.13760000000002h56.7552v-63.03744z"  horiz-adv-x="1024" />

    
    <glyph glyph-name="fault" unicode="&#58930;" d="M669.00934619 357.36448594l-47.66355176-47.66355176-33.64485996 30.84112178-42.0560745 42.05607451 75.70093446 81.30841172c84.1121499-36.44859815 171.02803711-22.42990635 229.90654161 28.03738271 58.8785045 50.46728994 58.8785045 148.59813076 58.87850537 148.59813076l-44.85981358 16.82242999-89.71962627-89.71962628-128.9719626 128.97196348L736.29906523 786.33644825 716.67289707 834S626.9532708 834 568.07476631 775.12149551c-56.07476631-56.07476631-72.89719628-145.79439258-33.64485996-227.10280429L453.1214955 469.51401856l-112.14953261 109.34579443-5.60747724 75.70093448-106.54205538 70.0934581-28.0373836-30.84112178-30.84112177-30.8411209-28.03738271-28.03738359 67.28971992-106.54205625 72.89719541-5.60747637 114.95327168-109.34579444L99.85046768 124.65420527000003s-8.41121455-53.27102813 25.23364453-86.9158872c28.03738359-28.03738359 78.50467266-22.42990635 78.50467266-22.42990723l285.98130878 305.60747695 42.05607452-39.25233633 30.84112177-30.84112177-58.87850449-61.68224268c84.1121499-84.1121499 168.22429893-171.02803711 255.14018613-255.14018701 86.91588809 22.42990635 137.38317714 84.1121499 165.42056074 165.42056074-84.1121499 89.71962627-168.22429893 173.83177529-255.14018613 257.9439252zM212.00000029 79.79439258000002c-14.0186918-14.0186918-36.44859815-14.0186918-50.46728994 0s-14.0186918 36.44859815 0 50.46728994 36.44859815 14.0186918 50.46728994 0c14.0186918-16.82242998 14.0186918-39.25233633 0-50.46728994zM764.33644883 1.2897199200000387l-193.45794434 193.45794346 28.03738359 28.0373836 199.0654207-199.06542071-33.64485995-22.42990635z m70.0934581 56.07476631l-199.0654207 199.0654207 28.03738272 28.03738272 193.45794433-193.45794346-22.42990635-33.64485996z"  horiz-adv-x="1024" />

    
    <glyph glyph-name="Selection" unicode="&#58980;" d="M442.88-114.17600000000004c-147.968 183.296-322.048 322.048-442.88 365.568l286.72 172.032 138.24-268.8S650.24 700.4159999999999 1006.08 882.176C998.4 752.1279999999999 963.072 639.488 1024 500.736c-156.16-35.328-476.672-424.96-581.12-614.912z"  horiz-adv-x="1024" />

    
    <glyph glyph-name="close" unicode="&#58933;" d="M779.98744201 603.27509307L292.77125549 116.01255799c-13.48743438-13.44108581-35.31761169-13.44108581-48.7586975 0s-13.44108581 35.27126313 0 48.7586975L731.22874451 651.98744201c13.48743438 13.44108581 35.31761169 13.44108581 48.7586975 0 13.44108581-13.44108581 13.44108581-35.27126313 0-48.71234894zM779.98744201 116.01255799c-13.44108581-13.44108581-35.27126313-13.44108581-48.7586975 0L244.01255799 603.27509307c-13.44108581 13.48743438-13.44108581 35.27126313 0 48.71234894 13.44108581 13.44108581 35.27126313 13.44108581 48.7586975 0L779.98744201 164.77125549000004c13.44108581-13.48743438 13.44108581-35.31761169 0-48.7586975z"  horiz-adv-x="1024" />

    
    <glyph glyph-name="ok" unicode="&#58931;" d="M380.416 73.856c-10.432 0-20.864 3.968-28.8 11.968L75.968 361.408c-15.936 15.936-15.936 41.664 0 57.6 15.872 15.872 41.664 15.872 57.536 0L380.416 172.15999999999997l510.08 510.016c15.872 15.936 41.664 15.936 57.536 0 15.936-15.936 15.936-41.664 0-57.6L409.216 85.75999999999999c-7.936-7.936-18.368-11.904-28.8-11.904z"  horiz-adv-x="1024" />

    
    <glyph glyph-name="person-add" unicode="&#58964;" d="M768 160H639.424a32 32 0 0 1 0-64H768v-128.576a32 32 0 0 1 64 0V96h128.576a32 32 0 0 1 0 64H832V288.576a32 32 0 0 1-64 0V160z m-164.8 51.2a703.552 703.552 0 0 1-4.48 0.448 30.912 30.912 0 0 0-26.88 31.936l1.28 62.72a31.744 31.744 0 0 0 14.464 26.176c71.168 44.928 104.32 130.944 104.32 270.72 0 142.848-95.68 172.8-175.936 172.8h-7.936c-80.256 0-175.872-29.952-175.872-172.8 0-137.344 34.56-225.92 105.536-270.72 8.96-5.696 14.464-15.872 14.464-26.88v-62.72a30.848 30.848 0 0 0-26.944-31.232c-145.728-15.232-242.368-71.232-242.368-101.568 0-97.6 179.008-118.08 329.152-118.08 38.976 0 79.872 1.408 119.04 5.12v-55.936C595.008-62.272 555.328-64 512-64c-254.784 0-384 59.904-384 178.112 0 84.416 133.12 139.648 265.856 158.336v17.536c-79.68 58.24-118.464 159.936-118.464 309.952C275.392 745.216 362.368 832 508.096 832h7.808c145.792 0 232.768-86.784 232.768-232.064 0-56.448 0-223.808-117.568-310.144l-0.384-17.408h0.32v-61.184h-27.84z"  horiz-adv-x="1024" />

    
    <glyph glyph-name="setup" unicode="&#58971;" d="M965.824 490.048a180.48 180.48 0 0 0-117.12 85.376 174.464 174.464 0 0 0-16 142.08 22.208 22.208 0 0 1-7.04 23.552 480.576 480.576 0 0 1-153.6 89.216 23.104 23.104 0 0 1-24.32-5.76 182.208 182.208 0 0 0-135.68-57.92 182.208 182.208 0 0 0-133.12 56.64 23.104 23.104 0 0 1-26.88 7.04 478.656 478.656 0 0 1-153.6-89.856 22.208 22.208 0 0 1-7.04-23.552 174.464 174.464 0 0 0-16-141.44A180.48 180.48 0 0 0 58.24 490.048a22.4 22.4 0 0 1-17.28-17.792c-11.52-58.24-11.52-118.208 0-176.512a22.4 22.4 0 0 1 17.28-17.792 180.48 180.48 0 0 0 117.12-84.736c25.408-42.944 31.232-94.592 16-142.08a22.208 22.208 0 0 1 7.04-23.552 480.576 480.576 0 0 1 153.6-89.216h7.68a23.04 23.04 0 0 1 16.64 7.04 184.128 184.128 0 0 0 266.944 0c6.592-8.96 18.752-11.968 28.8-7.04a479.36 479.36 0 0 1 156.16 88.576 22.208 22.208 0 0 1 7.04 23.552 174.464 174.464 0 0 0 13.44 142.72 180.48 180.48 0 0 0 117.12 84.736 22.4 22.4 0 0 1 17.28 17.792c11.584 58.24 11.584 118.208 0 176.512a23.04 23.04 0 0 1-17.28 17.792z m-42.88-169.408a218.752 218.752 0 0 1-128-98.112 211.904 211.904 0 0 1-21.76-156.736 415.936 415.936 0 0 0-112-63.68 217.472 217.472 0 0 1-149.12 63.68 221.312 221.312 0 0 1-149.12-63.68 414.592 414.592 0 0 0-112 63.68c12.8 53.12 4.288 109.12-23.68 156.096A218.752 218.752 0 0 1 101.12 320.64a386.176 386.176 0 0 0 0 127.36 218.752 218.752 0 0 1 128 98.112c27.2 47.552 34.944 103.68 21.76 156.8a415.296 415.296 0 0 0 112 63.68A221.44 221.44 0 0 1 512 708.608a218.24 218.24 0 0 1 149.12 57.984 413.952 413.952 0 0 0 112-63.744 211.904 211.904 0 0 1 23.04-156.096 218.752 218.752 0 0 1 128-98.112c7.04-42.176 7.04-85.184 0-127.36l-1.28-0.64zM512 575.424c-105.984 0-192-85.568-192-191.104a191.552 191.552 0 0 1 192-191.104c106.112 0 192.064 85.568 192.064 191.104a190.72 190.72 0 0 1-56.256 135.168 192.448 192.448 0 0 1-135.744 55.936z m0-318.528c-70.656 0-128 57.088-128 127.424 0 70.4 57.344 127.36 128 127.36 70.72 0 128-56.96 128-127.36 0-33.792-13.44-66.176-37.44-90.112a128.32 128.32 0 0 0-90.496-37.312z"  horiz-adv-x="1024" />

    
    <glyph glyph-name="lianjie" unicode="&#58897;" d="M591.1 463.3c-9.7 9.7-25.5 9.7-35.2 0L432.6 340.1c-9.7-9.7-9.7-25.5 0-35.2 9.7-9.7 25.5-9.7 35.2 0l123.3 123.3c9.7 9.6 9.7 25.4 0 35.1z m-288.2-387c-19.4-19.5-54.4 5.2-73.9 24.6-19.5 19.4-44.1 54.4-24.6 73.9L431.6 410c-33.2 8.8-78.1 12.5-104.1-13.5L155.2 224c-38.9-38.9-34.4-117.6 4.5-156.5l35.2-35.2c38.9-38.9 118.4-44.2 157.3-5.3l172.4 172.4c26 26 21.5 71.7 12.7 104.9l-234.4-228zM864 701.4l-35.2 35.2c-38.9 38.9-117.6 43.4-156.5 4.5L499.9 568.8c-26-26-22.3-70.9-13.5-104.1l235.2 227.2c19.4 19.5 54.4-5.2 73.9-24.6 19.4-19.5 44.1-54.4 24.6-73.9L592 359c33.2-8.8 78.9-13.3 104.9 12.7l172.4 172.4c38.9 39 33.6 118.4-5.3 157.3z"  horiz-adv-x="1024" />

    
    <glyph glyph-name="weather-smallrain" unicode="&#58892;" d="M790.08256 639.7184C778.83904 782.90944 659.07712 896 513.37216 896 367.68256 896 247.936 782.93504 236.66176 639.76448h-0.9216c-124.24192 0-225.31584-101.35552-225.31584-225.93024 0-124.58496 101.07904-225.94048 225.31584-225.94048h552.51456c124.24192 0 225.31584 101.35552 225.31584 225.94048 0.00512 123.96032-100.08576 224.89088-223.488 225.88416z m-1.82272-399.64672H235.74016c-95.5392 0-173.2608 77.94688-173.2608 173.75744 0 95.80544 77.7216 173.75232 173.2608 173.75232h21.9904c8.2176 0 15.45728 3.89632 20.22912 9.856 5.93408 4.78208 9.8048 12.02688 9.8048 20.25472 0 124.68224 101.20192 226.1248 225.60256 226.1248 124.40576 0 225.60256-101.44256 225.60256-226.1248 0-0.6912 0.14848-1.33632 0.19968-2.01216-0.0512-0.67584-0.19968-1.32096-0.19968-2.01216a26.0608 26.0608 0 0 1 26.03008-26.09152h23.25504c95.5392 0 173.2608-77.94688 173.2608-173.75232s-77.7216-173.75232-173.25568-173.75232z m-277.888-106.07616c-17.19296-10.36288-58.0864-36.13184-66.39616-51.5328-10.63424-19.7632-3.2512-44.52352 16.4608-55.19872a40.61184 40.61184 0 0 1 19.2768-4.89472 40.61184 40.61184 0 0 1 35.7888 21.39136c8.27904 15.34976 7.35232 63.79008 6.56896 83.9168-0.25088 5.5808-6.96832 9.19552-11.6992 6.31808z m-110.19776-150.3744c-17.2032-10.38336-58.10688-36.18304-66.38592-51.52768-10.63424-19.7632-3.2512-44.52864 16.4608-55.19872a40.6272 40.6272 0 0 1 19.2768-4.89472c14.96576 0 28.68224 8.192 35.79904 21.39136 8.26368 15.37024 7.34208 63.7952 6.55872 83.9168-0.25088 5.5808-6.89152 9.22112-11.70944 6.31296z"  horiz-adv-x="1024" />

    
    <glyph glyph-name="weather-middlerain" unicode="&#58895;" d="M790.08256 639.7132799999999C778.83904 782.90944 659.072 896 513.37216 896 367.68768 896 247.936 782.93504 236.672 639.75936h-0.92672c-124.24192 0-225.31584-101.35552-225.31584-225.93536 0-124.5696 101.07904-225.92512 225.31584-225.92512h552.50944c124.24704 0 225.32096 101.35552 225.32096 225.92512 0 123.96544-100.09088 224.896-223.49312 225.88928z m-1.82784-399.63648H235.74016c-95.53408 0-173.2608 77.94688-173.2608 173.7472 0 95.81056 77.7216 173.75744 173.2608 173.75744h21.9904c8.22272 0 15.4624 3.89632 20.23424 9.86112 5.93408 4.78208 9.80992 12.02688 9.80992 20.25472 0 124.68224 101.20704 226.1248 225.59744 226.1248 124.40064 0 225.60256-101.44256 225.60256-226.1248 0-0.6912 0.14848-1.33632 0.2048-2.01216-0.0512-0.67584-0.2048-1.32096-0.2048-2.01216a26.0608 26.0608 0 0 1 26.03008-26.09152h23.24992c95.5392 0 173.26592-77.94688 173.26592-173.75744-0.00512-95.80032-77.73184-173.7472-173.26592-173.7472z m-465.31072-106.08128c-17.2032-10.38336-58.10688-36.16768-66.38592-51.52768-10.63936-19.7632-3.25632-44.52864 16.4608-55.20896a40.64768 40.64768 0 0 1 19.26656-4.89472 40.6016 40.6016 0 0 1 35.79392 21.39136c8.2944 15.39072 7.35232 63.81056 6.55872 83.89632-0.2048 5.58592-6.8864 9.22624-11.69408 6.34368z m-110.18752-150.36416c-17.2032-10.38336-58.12224-36.18304-66.38592-51.53792a40.52992 40.52992 0 0 1-3.17952-31.01184 40.46336 40.46336 0 0 1 19.6352-24.18688 40.61184 40.61184 0 0 1 19.2768-4.89472 40.60672 40.60672 0 0 1 35.79392 21.39136c8.2688 15.36 7.34208 63.79008 6.55872 83.89632-0.21504 5.58592-6.94272 9.22624-11.6992 6.34368z m450.28352 153.5232c-17.2032-10.38336-58.10688-36.17792-66.38592-51.53792-10.64448-19.74784-3.26656-44.5184 16.45568-55.19872a40.6528 40.6528 0 0 1 19.27168-4.89472 40.61184 40.61184 0 0 1 35.79392 21.39136c8.2688 15.36 7.34208 63.80032 6.55872 83.90656-0.22016 5.59616-6.90176 9.20576-11.69408 6.33344z m-110.19264-150.36928c-17.20832-10.38336-58.12224-36.18816-66.3808-51.53792a40.52992 40.52992 0 0 1-3.18464-31.01184 40.4736 40.4736 0 0 1 19.64032-24.18688 40.58624 40.58624 0 0 1 55.06048 16.49664c8.27392 15.36 7.3472 63.79008 6.56384 83.89632-0.21504 5.60128-6.90176 9.23136-11.6992 6.34368z"  horiz-adv-x="1024" />

    
    <glyph glyph-name="weather-middlesnow" unicode="&#58896;" d="M787.280075 641.398313c-11.135304 142.255429-129.686615 254.601687-273.91824 254.601687-144.216266 0-262.757338-112.32066-273.913121-254.55561h-0.911303c-122.984953 0-223.04398-100.688747-223.043979-224.451892s100.059026-224.451892 223.043979-224.451892h546.940537c122.984953 0 223.04398 100.688747 223.043979 224.451892-0.010239 123.153903-99.091407 223.422836-221.241852 224.405815z m-1.807247-397.020947H238.532292c-94.570729 0-171.509281 77.43516-171.509281 172.615132s76.938551 172.615132 171.509281 172.615132h21.768879c8.130052 0 15.292484 3.865358 20.012829 9.778588 5.877393 4.751063 9.717153 11.954453 9.717153 20.130582 0 123.875778 100.176779 224.64644 223.325562 224.64644s223.325562-100.770662 223.325562-224.64644c0-0.680917 0.148471-1.325997 0.199668-1.996675-0.051197-0.670678-0.199668-1.310638-0.199668-1.996675 0-14.314625 11.534639-25.92094 25.76735-25.92094h23.018081c94.570729 0 171.509281-77.43516 171.509281-172.615132 0.00512-95.174852-76.933432-172.610012-171.504161-172.610012z m-407.065758-161.100971l-18.09295 4.863696 13.60299 12.947671a19.536699 19.536699 0 0 1 6.08218 13.669546 19.531579 19.531579 0 0 1-5.314228 13.992085c-7.075398 7.531049-19.982111 7.899666-27.497801 0.767952l-14.427259-13.730982-4.607712 19.429186c-2.447207 10.336634-13.096141 16.941021-23.432775 14.488694a19.331912 19.331912 0 0 1-12.056846-8.780251 19.500861 19.500861 0 0 1-2.355053-14.790755l4.853456-20.473601-20.212496 5.4371c-10.177924 2.692952-21.108441-3.665691-23.826991-13.858973-2.754388-10.428788 3.425066-21.169877 13.782179-23.954983l18.087829-4.863696-13.59787-12.942551a19.68005 19.68005 0 0 1-0.762832-27.671871 19.475263 19.475263 0 0 1 14.130316-6.112898c4.991688 0 9.742751 1.904521 13.367485 5.355186l14.427258 13.730981 4.607712-19.429185a19.403587 19.403587 0 0 1 35.489622-5.708444c2.728789 4.454122 3.563297 9.706913 2.355053 14.790756l-4.853457 20.468481 20.212497-5.4371c1.643417-0.435173 3.343151-0.665558 5.032645-0.665559a19.52134 19.52134 0 0 1 18.794346 14.519413c2.749268 10.413429-3.430186 21.164757-13.787298 23.960102z m-174.350704-134.24313l-18.087829 4.863696 13.60299 12.942552a19.669811 19.669811 0 0 1 0.762832 27.661631c-7.095877 7.52081-19.99747 7.894547-27.508041 0.767952l-14.417019-13.725862-4.602592 19.424066c-2.447207 10.336634-13.075663 16.920542-23.443015 14.488694-10.428788-2.498404-16.889824-13.070543-14.40166-23.571007l4.853457-20.4736-20.222736 5.4371c-10.188163 2.692952-21.087962-3.655452-23.811632-13.864094a19.557178 19.557178 0 0 1 1.950598-14.841952 19.35239 19.35239 0 0 1 11.826461-9.11303l18.08271-4.863696-13.60299-12.947671a19.68517 19.68517 0 0 1-0.757713-27.671871 19.36263 19.36263 0 0 1 27.497802-0.762832l14.427258 13.730982 4.607712-19.429186a19.408707 19.408707 0 0 1 35.489622-5.713563c2.71855 4.454122 3.553058 9.712033 2.344814 14.790756l-4.853457 20.4736 20.222736-5.4371c1.643417-0.435173 3.343151-0.665558 5.032645-0.665558a19.505981 19.505981 0 0 1 18.784106 14.519412c2.759508 10.433908-3.409707 21.185236-13.777059 23.980581z m561.12205 137.61188l-18.082709 4.858576 13.602989 12.947671a19.505981 19.505981 0 0 1 6.077061 13.669545 19.531579 19.531579 0 0 1-5.324468 13.992086c-7.075398 7.531049-19.982111 7.899666-27.497801 0.773072l-14.427258-13.730982-4.607712 19.429185c-2.447207 10.336634-13.075663 16.935902-23.432776 14.488695-10.428788-2.503524-16.889824-13.070543-14.40166-23.571007l4.853457-20.48384-20.222736 5.437101c-10.177924 2.682712-21.11868-3.665691-23.811632-13.848735a19.557178 19.557178 0 0 1 1.950598-14.841952 19.35751 19.35751 0 0 1 11.816222-9.12327l18.087829-4.863696-13.59787-12.947671a19.669811 19.669811 0 0 1-0.762832-27.661631 19.505981 19.505981 0 0 1 14.140556-6.112898c4.991688 0 9.742751 1.904521 13.367484 5.355185l14.417019 13.720743 4.607712-19.434306a19.403587 19.403587 0 0 1 23.443015-14.488694c10.428788 2.503524 16.889824 13.080782 14.40166 23.581246l-4.853457 20.473601 20.222737-5.437101c1.638298-0.435173 3.343151-0.665558 5.032645-0.665558a19.495742 19.495742 0 0 1 18.778986 14.519413c2.769747 10.418549-3.409707 21.169877-13.777059 23.965222z m-174.345583-134.24313l-18.08783 4.863696 13.60299 12.947671a19.68005 19.68005 0 0 1 0.762833 27.661631c-7.065158 7.531049-19.987231 7.899666-27.497802 0.767952l-14.427258-13.730982-4.607712 19.429186c-2.447207 10.336634-13.085902 16.935902-23.432776 14.488694a19.321672 19.321672 0 0 1-12.056846-8.780251 19.500861 19.500861 0 0 1-2.355053-14.790756l4.853457-20.47872-20.217617 5.431981c-10.167685 2.71343-21.11356-3.665691-23.821871-13.848735a19.500861 19.500861 0 0 1 1.960838-14.841952 19.306313 19.306313 0 0 1 11.816221-9.113031l18.08783-4.863696-13.59787-12.942551a19.68517 19.68517 0 0 1-0.767952-27.67187 19.480382 19.480382 0 0 1 14.130316-6.118018c4.991688 0 9.742751 1.904521 13.367485 5.355186l14.422139 13.725862 4.607712-19.439425a19.403587 19.403587 0 0 1 35.489622-5.703324 19.490622 19.490622 0 0 1 2.355052 14.790756l-4.853456 20.4736 20.212496-5.4371c1.638298-0.435173 3.343151-0.665558 5.032646-0.665559a19.505981 19.505981 0 0 1 18.789226 14.519413c2.769747 10.423669-3.409707 21.174997-13.76682 23.970342z"  horiz-adv-x="1024" />

    
    <glyph glyph-name="weather-largerain" unicode="&#58899;" d="M790.072386 639.732495C778.819245 782.91566 659.063911 896 513.372085 896 367.700736 896 247.960762 782.9412580000001 236.687142 639.7785719999999h-0.926669c-124.235087 0-225.308568-101.349946-225.308568-225.922934s101.073481-225.922934 225.308568-225.922934h552.484174c124.235087 0 225.308568 101.349946 225.308568 225.922934-0.00512 123.958622-100.090495 224.878512-223.480829 225.876857z m-1.832859-399.624741H235.755353c-95.533946 0-173.251271 77.942593-173.251271 173.747884s77.717326 173.747884 173.251271 173.747884h21.994311c8.206909 0 15.430831 3.880747 20.202409 9.824739 5.949113 4.781817 9.834979 12.036458 9.834979 20.279205 0 124.680503 101.201474 226.117484 225.585033 226.117484 124.393798 0 225.590153-101.436981 225.590152-226.117484 0-0.686042 0.148472-1.331127 0.199669-2.00693-0.051197-0.675803-0.199669-1.320887-0.199669-2.006929a26.059367 26.059367 0 0 1 26.028649-26.090085h23.248641c95.528826 0 173.251271-77.942593 173.251271-173.747884 0-95.81041-77.717326-173.747884-173.251271-173.747884zM260.483593 134.03742799999998c-17.202254-10.382789-58.103684-36.17593-66.382269-51.535086-10.638775-19.772353-3.256141-44.526191 16.454775-55.185444a40.589128 40.589128 0 0 1 19.28086-4.899571 40.599367 40.599367 0 0 1 35.786832 21.390184c8.288824 15.389874 7.346796 63.796811 6.558359 83.881466-0.204789 5.565134-6.793866 9.251331-11.698557 6.348451zM150.302133-16.333822000000055c-17.192014-10.36231-58.088325-36.114494-66.382269-51.524846a40.527691 40.527691 0 0 1-3.179345-31.010134 40.394578 40.394578 0 0 1 19.629001-24.170191 40.609606 40.609606 0 0 1 19.280859-4.90469 40.609606 40.609606 0 0 1 35.786832 21.390183c8.268345 15.348916 7.341676 63.786572 6.558359 83.891706-0.215028 5.595852-6.91162 9.205254-11.693437 6.327972z m606.440886 153.530116c-17.202254-10.382789-58.103684-36.18105-66.382269-51.535085-10.638775-19.772353-3.261261-44.526191 16.449655-55.185445a40.609606 40.609606 0 0 1 19.28086-4.90469 40.599367 40.599367 0 0 1 35.786832 21.390183c8.268345 15.338676 7.341676 63.776332 6.558359 83.891706-0.215028 5.580493-6.824585 9.235972-11.693437 6.343331z m-110.18658-150.371249c-17.192014-10.36231-58.083205-36.124733-66.377149-51.524847-10.643895-19.762113-3.261261-44.526191 16.454775-55.205923a40.624966 40.624966 0 0 1 19.265501-4.889331 40.619846 40.619846 0 0 1 35.797071 21.400423c8.268345 15.348916 7.341676 63.786572 6.558359 83.891706-0.220148 5.595852-6.9065 9.215493-11.698557 6.327972z m-140.633545 150.371249c-17.202254-10.382789-58.113924-36.18105-66.382269-51.535085a40.496973 40.496973 0 0 1-3.174225-31.010135 40.394578 40.394578 0 0 1 19.629-24.17019 40.609606 40.609606 0 0 1 19.28086-4.904691 40.599367 40.599367 0 0 1 35.786832 21.390184c8.268345 15.348916 7.341676 63.786572 6.558359 83.891706-0.220148 5.575373-6.850183 9.220613-11.698557 6.338211z m-110.18146-150.371249c-17.192014-10.352071-58.078086-36.104254-66.387388-51.524847-10.638775-19.762113-3.256141-44.526191 16.459894-55.205923a40.624966 40.624966 0 0 1 19.265501-4.889331 40.609606 40.609606 0 0 1 35.791951 21.400423c8.293944 15.379634 7.351916 63.796811 6.558359 83.881466-0.204789 5.585613-6.921859 9.215493-11.688317 6.338212z"  horiz-adv-x="1024" />

    
    <glyph glyph-name="weather-largersnow" unicode="&#58900;" d="M794.969424 641.398682C783.757341 783.648785 664.392175 896 519.167542 896 373.963387 896 254.60846 783.674383 243.375899 641.444759h-0.921542c-123.834641 0-224.579558-100.688601-224.579558-224.446447 0-123.762965 100.744917-224.456686 224.579558-224.456686h550.692464c123.829521 0 224.579558 100.688601 224.579558 224.456686 0 123.143485-99.76706 223.412273-222.756955 224.40037z m-1.822603-397.015251H242.454357c-95.220791 0-172.691676 77.435048-172.691676 172.614881 0 95.174714 77.470886 172.604642 172.691676 172.604642h21.922439c8.201716 0 15.420454 3.875592 20.176629 9.809293 5.908102 4.751056 9.763216 11.944196 9.763216 20.110074 0 123.865359 100.872909 224.635875 224.85602 224.635874 123.988231 0 224.86114-100.770516 224.86114-224.635874 0-0.686036 0.148471-1.325995 0.199668-2.001792-0.051197-0.670677-0.199667-1.315756-0.199668-2.001792a25.931142 25.931142 0 0 1 25.941381-25.920903h23.176758c95.220791 0 172.686557-77.435048 172.686557-172.604642 0-95.179833-77.470886-172.609762-172.691676-172.609761z m-283.896085-237.53745a19.582748 19.582748 0 0 1 14.509152 23.570973l-4.889287 20.47869 20.355818-5.431972a19.613466 19.613466 0 0 1 23.985666 13.848714c1.351594 5.053117 0.655318 10.31614-1.965954 14.841931s-6.850122 7.766543-11.903239 9.113017l-18.210676 4.863689 13.695125 12.947652a19.592987 19.592987 0 0 1 0.762831 27.671831c-7.141943 7.541278-20.145912 7.894535-27.692309 0.757711l-14.519392-13.725842-4.638423 19.434277c-2.467682 10.336619-13.203636 16.961475-23.596571 14.488674a19.598107 19.598107 0 0 1-14.504032-23.581212l4.889287-20.473571-20.355818 5.437092c-10.249585 2.682708-21.246641-3.655446-23.975427-13.848714-1.351594-5.042878-0.660438-10.31614 1.960834-14.841931s6.845002-7.766543 11.903239-9.123257l18.210676-4.863689-13.695125-12.947652a19.444517 19.444517 0 0 1-6.118008-13.669525 19.444517 19.444517 0 0 1 5.350058-13.992066 19.69538 19.69538 0 0 1 14.232689-6.112889c5.027518 0 9.804173 1.894279 13.45962 5.344938l14.519391 13.725843 4.638423-19.424038a19.505953 19.505953 0 0 1 19.040063-15.026239c1.520543 0 3.051325 0.184308 4.551389 0.537565z m-135.461417-57.811343l-18.215796 4.863689 13.695125 12.947652a19.424038 19.424038 0 0 1 6.118008 13.669526 19.408679 19.408679 0 0 1-5.350057 13.992065c-7.141943 7.536158-20.140792 7.879176-27.68719 0.757712l-14.524511-13.725842-4.643543 19.439397c-2.472802 10.336619-13.188277 16.961475-23.596571 14.488673a19.592987 19.592987 0 0 1-14.504033-23.581212l4.884168-20.468451-20.350698 5.431973c-10.244465 2.682708-21.251761-3.655446-23.985667-13.848715a19.608346 19.608346 0 0 1 13.864074-23.965187l18.215795-4.863689-13.695124-12.947652a19.582748 19.582748 0 0 1-0.767951-27.661591 19.69538 19.69538 0 0 1 14.23269-6.112889c5.027518 0 9.804173 1.894279 13.459619 5.344938l14.519391 13.725842 4.638424-19.429157a19.521312 19.521312 0 0 1 23.591451-14.488674 19.592987 19.592987 0 0 1 14.514272 23.581212l-4.889287 20.468451 20.350698-5.431972a19.608346 19.608346 0 0 1 23.985666 13.853834 19.587867 19.587867 0 0 1-13.858953 23.960067z m-107.794707 57.273778c1.530782 0 3.061564 0.184308 4.556509 0.537565a19.464995 19.464995 0 0 1 12.143863 8.775119c2.739025 4.454115 3.583771 9.712019 2.365289 14.790734l-4.889288 20.478691 20.355819-5.437093a19.613466 19.613466 0 0 1 23.985666 13.848715 19.39332 19.39332 0 0 1-1.965954 14.841931 19.464995 19.464995 0 0 1-11.903239 9.113017l-18.210676 4.863689 13.695125 12.947652a19.592987 19.592987 0 0 1 0.76795 27.67183c-7.152183 7.541278-20.151031 7.894535-27.692309 0.757712l-14.519391-13.725842-4.638424 19.434277c-2.467682 10.336619-13.198516 16.961475-23.596571 14.488673a19.592987 19.592987 0 0 1-14.498912-23.581212l4.889287-20.47357-20.355818 5.437092c-10.249585 2.682708-21.246641-3.655446-23.975427-13.848715-1.351594-5.042878-0.660438-10.31614 1.960835-14.84193s6.845002-7.766543 11.903238-9.123257l18.210676-4.863689-13.695124-12.947652a19.572508 19.572508 0 0 1-0.762832-27.661591 19.69538 19.69538 0 0 1 14.23269-6.112889c5.027518 0 9.804173 1.894279 13.4545 5.344938l14.519391 13.725842 4.638424-19.429157a19.480354 19.480354 0 0 1 19.024703-15.01088z m-130.899789-57.273778l-18.215795 4.863689 13.695124 12.947652a19.424038 19.424038 0 0 1 6.118009 13.669526 19.408679 19.408679 0 0 1-5.350058 13.992065c-7.141943 7.536158-20.140792 7.879176-27.687189 0.757712l-14.519392-13.725842-4.638423 19.434277c-2.477922 10.336619-13.198516 16.971715-23.591452 14.488673a19.587867 19.587867 0 0 1-14.509152-23.581212l4.884168-20.468451-20.350699 5.431973c-10.270063 2.682708-21.251761-3.655446-23.980546-13.848714a19.608346 19.608346 0 0 1 13.864073-23.965188l18.215795-4.863689-13.695124-12.947652a19.424038 19.424038 0 0 1-6.118008-13.669526 19.434277 19.434277 0 0 1 5.350057-13.992065 19.674902 19.674902 0 0 1 14.227571-6.112889c5.027518 0 9.804173 1.894279 13.459619 5.344938l14.519391 13.730962 4.638424-19.429157a19.521312 19.521312 0 0 1 23.591451-14.488674 19.603226 19.603226 0 0 1 14.514272 23.581212l-4.884168 20.468451 20.350699-5.431972a19.608346 19.608346 0 0 1 23.985666 13.853834 19.618585 19.618585 0 0 1-13.874313 23.960067z m668.762353 137.601441l-18.210676 4.863689 13.695125 12.947652a19.592987 19.592987 0 0 1 0.76795 27.67183c-7.116345 7.531038-20.120313 7.884296-27.692309 0.757712l-14.519391-13.725843-4.638424 19.424038c-2.467682 10.336619-13.198516 16.966595-23.596571 14.498913a19.449636 19.449636 0 0 1-12.138743-8.785358c-2.739025-4.454115-3.583771-9.706899-2.365289-14.790734l4.889287-20.473571-20.355818 5.437092c-10.254704 2.66223-21.251761-3.655446-23.975427-13.848714-1.351594-5.042878-0.660438-10.31614 1.960835-14.841931s6.845002-7.766543 11.903239-9.123256l18.210675-4.863689-13.695124-12.947652a19.577628 19.577628 0 0 1-0.762831-27.661591 19.685141 19.685141 0 0 1 14.23269-6.11289c5.027518 0 9.804173 1.894279 13.459619 5.344939l14.519391 13.725842 4.638424-19.429158a19.511072 19.511072 0 0 1 19.034942-15.026239 19.582748 19.582748 0 0 1 19.065661 24.108539l-4.889287 20.47357 20.360938-5.437092a19.618585 19.618585 0 0 1 23.980546 13.864073c1.351594 5.053117 0.655318 10.31614-1.965954 14.841931s-6.860361 7.766543-11.913478 9.107898z m-175.548454-134.242935l-18.215795 4.863689 13.695124 12.947652a19.592987 19.592987 0 0 1 0.762831 27.67183c-7.136824 7.531038-20.135672 7.889415-27.687189 0.757712l-14.524511-13.730962-4.638424 19.429157c-2.472802 10.336619-13.183157 16.971715-23.596571 14.498913a19.449636 19.449636 0 0 1-12.138743-8.785358c-2.739025-4.454115-3.583771-9.712019-2.365289-14.790734l4.889287-20.468451-20.350698 5.437092c-10.254704 2.66223-21.256881-3.655446-23.985666-13.848714a19.608346 19.608346 0 0 1 13.864073-23.965188l18.210675-4.863689-13.695124-12.942532a19.398439 19.398439 0 0 1-6.112889-13.669526 19.429158 19.429158 0 0 1 5.344938-13.992065 19.69538 19.69538 0 0 1 14.23269-6.112889c5.027518 0 9.804173 1.894279 13.459619 5.344938l14.519392 13.725842 4.638423-19.424038a19.511072 19.511072 0 0 1 23.591452-14.488673 19.475235 19.475235 0 0 1 12.143863 8.780238c2.744145 4.454115 3.583771 9.706899 2.365289 14.790734l-4.889288 20.473571 20.360938-5.437092a19.603226 19.603226 0 0 1 23.980547 13.864073 19.39332 19.39332 0 0 1-1.965955 14.841931 19.454756 19.454756 0 0 1-11.892999 9.092539z"  horiz-adv-x="1024" />

    
    <glyph glyph-name="notice" unicode="&#59103;" d="M814.93333333 619.8399999999999L512 820.16 209.06666667 619.8399999999999H34.13333333v-672h955.73333334v672H814.93333333zM512 756.16l206.18666667-136.32H305.81333333L512 756.16z m424.53333333-754.98666667H87.46666667v565.33333334h849.06666666v-565.33333334z m-616.53333333 250.66666667h-64v64h64v-64z m224 0h-64v64h64v-64z m224 0h-64v64h64v-64z"  horiz-adv-x="1024" />

    
    <glyph glyph-name="arrow-rtop" unicode="&#58927;" d="M764.226 234.57000000000005l0 364.149c0 28.44-23.051 51.491-51.491 51.491l-364.149 0c-28.44 0-51.491-23.051-51.491-51.491s23.051-51.491 51.491-51.491l239.82899999 0-349.07299999-349.07299999c-20.119-20.119-20.119-52.711 1e-8-72.83100001s52.711-20.119 72.831 0l349.07299999 349.07299999 0-239.82899999c-0.001-14.202 5.754-27.093 15.076-36.415s22.195-15.094 36.415-15.076c28.44 0 51.491 23.051 51.491 51.491z"  horiz-adv-x="1000" />

    
    <glyph glyph-name="menuBm" unicode="&#58891;" d="M204.805 783.355h819.189v-102.399H204.805zM204.805 435.199h716.79v-102.398h-716.79zM204.805 87.04399999999998h511.993v-102.399H204.805zM0.006 783.355h102.399v-102.399H0.006zM0.006 435.199h102.399v-102.398H0.006zM0.006 87.04399999999998h102.399v-102.399H0.006z"  horiz-adv-x="1024" />

    
    <glyph glyph-name="weather-overcast" unicode="&#59118;" d="M288 128h448a160 160 0 0 1 0 320 224 224 0 0 1-448 0 160 160 0 0 1 0-320z m0-64a224 224 0 0 0-58.496 440.288C255.68 636.384 372.224 736 512 736c139.808 0 256.32-99.616 282.496-231.712A224 224 0 0 0 736 64H288z"  horiz-adv-x="1024" />

    
    <glyph glyph-name="person" unicode="&#59023;" d="M108.714667 37.75999999999999c-27.170133-9.736533-44.714667-32.3072-44.714667-52.9152v-23.970133c0-15.0784 11.588267-24.874667 36.0704-24.874667h822.792533c24.490667 0 36.087467 9.796267 36.087467 24.874667v23.970133c0 21.12-18.039467 44.7232-42.496 53.4784L688.930133 126.75413300000002c-2.833067 1.1008-7.253333 2.901333-12.782933 5.307734a393.6256 393.6256 0 0 0-27.272533 13.056c-15.6672 8.311467-28.6976 16.759467-39.466667 26.794666-0.9984 0.938667-0.9984 0.938667-2.013867 1.928534-33.3568 32.699733-33.194667 77.098667-16.955733 131.3024 4.650667 15.5392 11.281067 26.709333 29.969067 54.9888a3821.909333 3821.909333 0 0 0 9.1392 13.781333c3.8144 5.76 6.7584 10.222933 9.685333 14.702933a1063.253333 1063.253333 0 0 1 20.113067 31.880534c27.229867 45.090133 44.629333 84.036267 51.106133 118.203733 1.792 9.429333 2.679467 18.269867 2.679467 26.504533 0 148.5312-94.097067 264.285867-202.862934 264.285867-108.757333 0-202.845867-115.754667-202.845866-264.2944 0-12.270933 1.877333-26.112 5.649066-41.301333 7.867733-31.761067 23.3216-67.336533 44.817067-105.7024 15.4624-27.5968 56.2432-90.3936 58.2144-94.1568 23.304533-44.526933 21.179733-110.890667-9.4208-145.092267-14.037333-15.5136-31.650133-25.745067-55.432533-36.096-9.728-4.224-19.831467-8.106667-29.909334-11.630933-3.8656-1.348267-7.236267-2.474667-9.9584-3.362134l-202.6496-90.094933z m829.329066 60.817067c47.607467-17.0496 84.906667-63.197867 84.906667-113.732267v-23.970133c0-55.133867-44.893867-88.874667-100.087467-88.874667H100.0704C44.885333-128 0-94.25919999999996 0-39.125332999999955v23.970133c0 50.517333 37.290667 95.300267 84.898133 112.3584l203.733334 90.581333s55.227733 16.930133 70.3488 33.834667c10.0608 11.246933 13.166933 48.375467 0.4096 72.738133-12.731733 24.362667-115.976533 158.404267-115.976534 270.839467 0 181.2992 119.466667 328.2944 266.837334 328.2944C657.646933 893.4912 777.130667 746.496 777.130667 565.205333c0-117.393067-115.8656-246.621867-125.3888-278.417066-9.5232-31.7952-10.299733-56.695467 0.4608-67.242667 16.7424-16.418133 59.844267-33.109333 59.844266-33.109333l226.005334-87.8592z"  horiz-adv-x="1024" />

    
    <glyph glyph-name="weather-gale" unicode="&#59292;" d="M384 512h307.2c15.36 0 25.6 10.24 25.6 25.6s-10.24 25.6-25.6 25.6H384c-15.36 0-25.6-10.24-25.6-25.6s10.24-25.6 25.6-25.6z m-128-102.4h460.8c84.48 0 153.6 69.12 153.6 153.6s-69.12 153.6-153.6 153.6v-51.2c71.68-12.8 102.4-46.08 102.4-102.4s-58.88-102.4-133.12-102.4H256c-15.36 0-25.6-10.24-25.6-25.6s10.24-25.6 25.6-25.6z m460.8-51.2H179.2c-15.36 0-25.6-10.24-25.6-25.6s10.24-25.6 25.6-25.6h506.88c74.24 0 133.12-46.08 133.12-102.4s-43.52-102.4-153.6-102.4v-51.2h51.2c84.48 0 153.6 69.12 153.6 153.6s-69.12 153.6-153.6 153.6z m-204.8-102.4h-204.8c-15.36 0-25.6-10.24-25.6-25.6s10.24-25.6 25.6-25.6h204.8c28.16 0 51.2-23.04 51.2-51.2s-23.04-51.2-51.2-51.2v-51.2c56.32 0 102.4 46.08 102.4 102.4s-46.08 102.4-102.4 102.4z"  horiz-adv-x="1024" />

    
    <glyph glyph-name="icon-" unicode="&#58886;" d="M599.04 445.44c-7.68 0-12.8 2.56-17.92 7.68-10.24 10.24-10.24 25.6 0 35.84l220.16 220.16c10.24 10.24 25.6 10.24 35.84 0s10.24-25.6 0-35.84l-220.16-220.16c-5.12-5.12-12.8-7.68-17.92-7.68zM824.32 550.4c-15.36 0-25.6 10.24-25.6 25.6V670.72h-94.72c-15.36 0-25.6 10.24-25.6 25.6s10.24 25.6 25.6 25.6h120.32c15.36 0 25.6-10.24 25.6-25.6v-120.32c0-15.36-10.24-25.6-25.6-25.6zM202.24 51.2c-7.68 0-12.8 2.56-17.92 7.68-10.24 10.24-10.24 25.6 0 35.84l220.16 220.16c10.24 10.24 25.6 10.24 35.84 0s10.24-25.6 0-35.84l-220.16-220.16c-5.12-5.12-10.24-7.68-17.92-7.68zM320 46.08H199.68c-15.36 0-25.6 10.24-25.6 25.6v120.32c0 15.36 10.24 25.6 25.6 25.6s25.6-10.24 25.6-25.6v-94.72h94.72c15.36 0 25.6-10.24 25.6-25.6s-10.24-25.6-25.6-25.6zM819.2 48.64c-7.68 0-12.8 2.56-17.92 7.68l-220.16 220.16c-10.24 10.24-10.24 25.6 0 35.84s25.6 10.24 35.84 0l220.16-220.16c10.24-10.24 10.24-25.6 0-35.84-5.12-5.12-12.8-7.68-17.92-7.68zM824.32 46.08h-120.32c-15.36 0-25.6 10.24-25.6 25.6s10.24 25.6 25.6 25.6h94.72v94.72c0 15.36 10.24 25.6 25.6 25.6s25.6-10.24 25.6-25.6v-120.32c0-15.36-10.24-25.6-25.6-25.6zM424.96 445.44c-7.68 0-12.8 2.56-17.92 7.68L184.32 673.28c-10.24 10.24-10.24 25.6 0 35.84s25.6 10.24 35.84 0l220.16-220.16c10.24-10.24 10.24-25.6 0-35.84-2.56-5.12-10.24-7.68-15.36-7.68zM199.68 550.4c-15.36 0-25.6 10.24-25.6 25.6V696.32c0 15.36 10.24 25.6 25.6 25.6h120.32c15.36 0 25.6-10.24 25.6-25.6s-10.24-25.6-25.6-25.6H225.28v-94.72c0-15.36-12.8-25.6-25.6-25.6z"  horiz-adv-x="1024" />

    
    <glyph glyph-name="riqi" unicode="&#58881;" d="M739.328 725.504v56.832h-56.832v-56.832H341.504v56.832h-56.832v-56.832H56.832v-739.328h910.336V725.504h-227.84z m171.008-688.64H113.664V440.832h796.672v-403.968z m0 460.8H113.664v176.64H284.16v-62.464h56.832v62.464h341.504v-62.464h56.832v62.464h170.496v-176.64zM682.496 213.504H796.16V99.84H682.496zM455.168 384h113.664v-113.664H455.168z m227.328 0H796.16v-113.664H682.496zM227.328 213.504h113.664V99.84H227.328z m227.84 0h113.664V99.84H455.168zM227.328 384h113.664v-113.664H227.328z"  horiz-adv-x="1024" />

    
    <glyph glyph-name="xiugai" unicode="&#59041;" d="M224 282.51V192h90.51l271.53 271.53-90.51 90.51L224 282.51zM653.92 576.67l-45.25 45.25a32 32 0 0 1-45.25 0l-22.63-22.63 90.51-90.51 22.63 22.63a32 32 0 0 1-0.01 45.26zM224 128h576v-64H224z"  horiz-adv-x="1025" />

    
    <glyph glyph-name="lamp" unicode="&#60310;" d="M816 320h-31.744v253.152c0 143.424-119.872 260.096-267.2 260.096-147.328 0-267.2-116.672-267.2-260.096V320H208C163.904 320 128 284.12800000000004 128 240S163.904 160 208 160H384v-112.576a32 32 0 1 1 64 0V160h128v-176.576a32 32 0 1 1 64 0V160h176c44.128 0 80 35.872 80 80S860.128 320 816 320zM313.888 573.152c0 108.128 91.168 196.096 203.2 196.096s203.2-87.968 203.2-196.096V320h-406.4v253.152zM816 224h-608a16 16 0 0 0 0 32h608c8.8 0 16-7.2 16-16s-7.2-16-16-16z"  horiz-adv-x="1024" />

    
    <glyph glyph-name="add" unicode="&#59284;" d="M802.909091 407.272727H558.545455V651.636364a34.909091 34.909091 0 1 1-69.818182 0V407.272727H244.363636a34.909091 34.909091 0 1 1 0-69.818182H488.727273v-244.363636a34.909091 34.909091 0 1 1 69.818182 0V337.45454500000005h244.363636a34.909091 34.909091 0 1 1 0 69.818182"  horiz-adv-x="1024" />

    
    <glyph glyph-name="data" unicode="&#59028;" d="M928.00000033-42.66666699999996h-789.333334A32 32 0 0 0 106.66666633-10.666666999999961v789.333334a32 32 0 0 0 64 0V21.33333300000004h757.333334a32 32 0 0 0 0-64zM874.66666633 64h-64a42.666667 42.666667 0 0 0-42.666666 42.666667V576a42.666667 42.666667 0 0 0 42.666666 42.666667h64a42.666667 42.666667 0 0 0 42.666667-42.666667v-469.333333a42.666667 42.666667 0 0 0-42.666667-42.666667z m-256 0h-64a42.666667 42.666667 0 0 0-42.666666 42.666667V490.666667a42.666667 42.666667 0 0 0 42.666666 42.666666h64a42.666667 42.666667 0 0 0 42.666667-42.666666v-384a42.666667 42.666667 0 0 0-42.666667-42.666667z m-256 0h-64a42.666667 42.666667 0 0 0-42.666666 42.666667V661.333333a42.666667 42.666667 0 0 0 42.666666 42.666667h64a42.666667 42.666667 0 0 0 42.666667-42.666667v-554.666666a42.666667 42.666667 0 0 0-42.666667-42.666667z"  horiz-adv-x="1024" />

    
    <glyph glyph-name="shipin1" unicode="&#58967;" d="M204.8 659.2A19.2 19.2 0 0 1 185.6 640v-512c0-10.5984 8.6016-19.2 19.2-19.2h614.4a19.2 19.2 0 0 1 19.2 19.2V640A19.2 19.2 0 0 1 819.2 659.2H204.8z m0 64h614.4c45.9264 0 83.2-37.2736 83.2-83.2v-512c0-45.9264-37.2736-83.2-83.2-83.2H204.8A83.2 83.2 0 0 0 121.6 128V640c0 45.9264 37.2736 83.2 83.2 83.2zM670.7712 410.9824a52.48 52.48 0 0 0-17.9712-71.9872l-195.7376-117.4016a52.48 52.48 0 0 0-79.4624 44.9536V501.4528a52.48 52.48 0 0 0 79.4624 44.9536L652.8 429.056c7.3728-4.4544 13.568-10.5984 17.9712-18.0224z m-229.1712 70.144v-194.2016L603.392 384l-161.792 97.0752z"  horiz-adv-x="1024" />

    
    <glyph glyph-name="cateMore" unicode="&#59117;" d="M384 416H192c-52.8 0-96 43.2-96 96V704c0 52.8 43.2 96 96 96h192c52.8 0 96-43.2 96-96v-192c0-52.8-43.2-96-96-96zM192 736c-17.6 0-32-14.4-32-32v-192c0-17.6 14.4-32 32-32h192c17.6 0 32 14.4 32 32V704c0 17.6-14.4 32-32 32H192z m640-320H640c-52.8 0-96 43.2-96 96V704c0 52.8 43.2 96 96 96h192c52.8 0 96-43.2 96-96v-192c0-52.8-43.2-96-96-96zM640 736c-17.6 0-32-14.4-32-32v-192c0-17.6 14.4-32 32-32h192c17.6 0 32 14.4 32 32V704c0 17.6-14.4 32-32 32H640zM384-32H192c-52.8 0-96 43.2-96 96V256c0 52.8 43.2 96 96 96h192c52.8 0 96-43.2 96-96v-192c0-52.8-43.2-96-96-96zM192 288c-17.6 0-32-14.4-32-32v-192c0-17.6 14.4-32 32-32h192c17.6 0 32 14.4 32 32V256c0 17.6-14.4 32-32 32H192z m640-320H640c-52.8 0-96 43.2-96 96V256c0 52.8 43.2 96 96 96h192c52.8 0 96-43.2 96-96v-192c0-52.8-43.2-96-96-96zM640 288c-17.6 0-32-14.4-32-32v-192c0-17.6 14.4-32 32-32h192c17.6 0 32 14.4 32 32V256c0 17.6-14.4 32-32 32H640z"  horiz-adv-x="1024" />

    
    <glyph glyph-name="play" unicode="&#59152;" d="M540.032 825.024c-245.952 0-446.016-200.064-446.016-446.016S294.08-67.00800000000004 540.032-67.00800000000004s446.016 200.064 446.016 446.016S785.984 825.024 540.032 825.024z m0-828.032c-210.624 0-382.016 171.392-382.016 382.016s171.392 382.016 382.016 382.016 382.016-171.392 382.016-382.016-171.392-382.016-382.016-382.016zM417.152 252.15999999999997c0-35.2 24.96-49.6 55.424-32L692.16 346.94399999999996c30.528 17.6 30.528 46.4 0 64L472.576 537.7919999999999c-30.528 17.6-55.424 3.2-55.424-32V252.15999999999997z"  horiz-adv-x="1024" />

    
    <glyph glyph-name="gonggao" unicode="&#59188;" d="M494.4 724.8l-155.2-97.6C318.4 614.4 296 608 272 608h-76.8C131.2 608 80 556.8 80 494.4v-225.6C80 200 136 144 204.8 144h89.6c24 0 46.4-6.4 67.2-19.2L496 43.2c9.6-6.4 20.8-9.6 33.6-9.6 35.2 0 64 28.8 64 64V670.4c0 11.2-3.2 24-9.6 33.6-20.8 30.4-59.2 40-89.6 20.8zM528 97.6l-134.4 81.6c-30.4 17.6-64 28.8-99.2 28.8h-89.6c-33.6 0-60.8 27.2-60.8 60.8V494.4c0 27.2 22.4 49.6 49.6 49.6H272c36.8 0 70.4 9.6 102.4 28.8l155.2 97.6v-572.8zM912 416H720c-17.6 0-32-14.4-32-32s14.4-32 32-32h192c17.6 0 32 14.4 32 32s-14.4 32-32 32z m-12.8-272l-166.4 96c-16 9.6-35.2 3.2-43.2-11.2-9.6-16-3.2-35.2 11.2-43.2l166.4-96c16-9.6 35.2-3.2 43.2 11.2 9.6 14.4 4.8 33.6-11.2 43.2z m-168 384l166.4 96c16 9.6 20.8 28.8 11.2 43.2-9.6 16-28.8 20.8-43.2 11.2l-166.4-96c-16-9.6-20.8-28.8-11.2-43.2s28.8-20.8 43.2-11.2z"  horiz-adv-x="1024" />

    
    <glyph glyph-name="shiplinear" unicode="&#59201;" d="M956.8 60.799999999999955c-6.4 16-25.6 24-41.6 16l-54.4-24c-16-6.4-33.6-12.8-51.2-17.6l104 280c11.2 33.6-6.4 70.4-40 81.6L800 422.4V592c0 35.2-28.8 64-64 64h-80v64c0 52.8-43.2 96-96 96h-96c-52.8 0-96-43.2-96-96v-64h-80c-35.2 0-64-28.8-64-64v-174.4l-60.8-20.8c-16-6.4-28.8-17.6-35.2-33.6-6.4-16-8-33.6-1.6-49.6L232 30.399999999999977c-20.8 4.8-41.6 9.6-60.8 19.2l-60.8 27.2c-16 8-35.2 0-41.6-16-8-16 0-35.2 16-41.6L144-8c36.8-16 73.6-25.6 113.6-28.8h27.2c36.8 0 73.6 6.4 108.8 17.6 35.2 11.2 70.4 17.6 105.6 17.6h27.2c27.2-1.6 52.8-6.4 80-14.4l11.2-3.2c27.2-8 52.8-12.8 80-16h9.6c6.4 0 12.8 0 19.2-1.6h16c8 0 14.4 0 22.4 1.6h1.6l9.6 1.6c38.4 4.8 76.8 14.4 112 30.4l54.4 24c14.4 4.8 22.4 24 14.4 40zM432 720c0 17.6 14.4 32 32 32h96c17.6 0 32-14.4 32-32v-64H432v64z m305.6-694.4h-20.8c-3.2 0-8 0-11.2 1.6-17.6 1.6-36.8 4.8-54.4 9.6L640 40c-32 9.6-64 16-97.6 19.2v384L852.8 336 737.6 25.600000000000023zM288 592h448v-144l-152 52.8c-20.8 6.4-41.6 11.2-62.4 11.2-20.8 0-41.6-3.2-62.4-11.2L288 443.2V592z m192-155.2v-377.6c-43.2-1.6-86.4-9.6-128-24-16-4.8-33.6-9.6-49.6-9.6L185.6 336 480 436.8z"  horiz-adv-x="1024" />

    
    <glyph glyph-name="equipment" unicode="&#58905;" d="M967.0144 178.5856h-64.8192v168.448h-345.6V457.728h285.5936a19.2512 19.2512 0 0 1 19.2 19.2512v317.44a19.3024 19.3024 0 0 1-19.2 19.6608H189.44a19.3024 19.3024 0 0 1-19.2-19.2512v-317.44A19.3024 19.3024 0 0 1 189.44 457.728h285.5936v-110.6944h-345.6v-168.448H64.6144a9.6256 9.6256 0 0 1-9.5744-9.6256v-211.712a9.6256 9.6256 0 0 1 9.5744-9.6256h211.2a9.6256 9.6256 0 0 1 9.6256 9.6256V168.96000000000004a9.6256 9.6256 0 0 1-9.6256 9.6256H210.9952V265.216h264.0384v-86.6304H410.2144a9.6256 9.6256 0 0 1-9.5744-9.6256v-211.712a9.6256 9.6256 0 0 1 9.5744-9.6256h211.2a9.6256 9.6256 0 0 1 9.5744 9.6256V168.96000000000004a9.6256 9.6256 0 0 1-9.5744 9.6256h-64.8192V265.216h263.9872v-86.6304h-64.768a9.6256 9.6256 0 0 1-9.6256-9.6256v-211.712a9.6256 9.6256 0 0 1 9.6256-9.6256h211.2a9.6256 9.6256 0 0 1 9.5744 9.6256V168.96000000000004a9.6256 9.6256 0 0 1-9.5744 9.6256zM208.64 27.852800000000002a3.2768 3.2768 0 0 0-3.2768-3.2768H134.9632a3.2768 3.2768 0 0 0-3.2768 3.2768v70.6048a3.2768 3.2768 0 0 0 3.2768 3.2768h70.4a3.2768 3.2768 0 0 0 3.2768-3.2768z m345.5488 0a3.2768 3.2768 0 0 0-3.2256-3.2768H480.512a3.2768 3.2768 0 0 0-3.2256 3.2768v70.6048a3.2256 3.2256 0 0 0 3.2256 3.2768h70.4512a3.2256 3.2256 0 0 0 3.2256-3.2768z m-307.2 506.88V736.8704h537.6v-202.1376z m652.7488-506.88a3.2768 3.2768 0 0 0-3.2256-3.2768h-70.4a3.2768 3.2768 0 0 0-3.2256 3.2768v70.6048a3.2256 3.2256 0 0 0 3.2256 3.2768h70.4512a3.2256 3.2256 0 0 0 3.2256-3.2768zM381.44 683.9295999999999a48.128 48.128 0 1 1 47.9744-48.128 48.0768 48.0768 0 0 1-47.9744 48.128z"  horiz-adv-x="1024" />

    
    <glyph glyph-name="alarm" unicode="&#58907;" d="M764.5696 542.72l4.4544-4.5056 93.8496 94.6176c8.96 9.0112 8.96 18.0224 8.96 27.0336a64.6656 64.6656 0 0 1-8.96 27.0336 40.3968 40.3968 0 0 1-49.152-4.5056l-93.7984-94.4128 8.9088-4.5056c8.96-18.0224 22.3232-27.0336 35.7376-40.7552zM188.16 376.21759999999995H58.5728a35.84 35.84 0 0 1 0-72.0896h129.5872z m361.9328 419.0208a35.3792 35.3792 0 0 1-35.84 35.84 38.6048 38.6048 0 0 1-35.84-35.84V655.36h71.68zM264.1408 538.4192l4.4544 4.5056A171.4176 171.4176 0 0 0 308.8384 583.6800000000001l8.9088 4.5056-98.304 98.9184c-17.8688 13.5168-40.192 13.5168-53.6064 0a64.6656 64.6656 0 0 1-8.96-27.0336 64.6656 64.6656 0 0 1 8.96-27.0336z m705.9968-162.2016h-129.5872v-72.0896h129.5872a35.84 35.84 0 0 1 0 72.0896zM599.04 295.1168h-80.2304l44.6976 45.056c8.96 9.0112 8.96 18.0224 8.96 27.0336a64.6656 64.6656 0 0 1-8.96 27.0336 34.8672 34.8672 0 0 1-49.152 0l-107.2128-103.6288a35.5328 35.5328 0 0 1 0-49.5616q13.3632-13.5168 40.192-13.5168h75.9808L460.8 155.44320000000005c-8.96-9.0112-8.96-18.0224-8.96-27.0336A64.6656 64.6656 0 0 1 460.8 101.37599999999998c8.8576-9.216 17.8176-9.216 26.7264-9.216a63.232 63.232 0 0 1 26.8288 9.0112l107.52 108.1344a58.5216 58.5216 0 0 1 17.8688 45.056c-0.256 22.7328-13.6704 40.7552-40.704 40.7552z m259.1744-292.864h-57.9072v328.9088C800.3072 488.8576 670.72 619.52 514.3552 619.52s-285.952-130.6624-285.952-288.3584v-328.9088H170.2912a35.84 35.84 0 0 1 0-72.0896h688.128a35.84 35.84 0 0 1 0 72.0896z m-129.5872 0H299.8784v306.3808c0 58.5728 22.3232 112.64 62.5664 157.696a204.544 204.544 0 0 0 303.8208 0c40.2432-40.5504 62.5664-99.1232 62.5664-157.696z"  horiz-adv-x="1024" />

    
    <glyph glyph-name="eyes-open" unicode="&#59316;" d="M997.45185185 383.87863703000005c0-12.25765925-3.64088889-24.75804445-10.8013037-37.37979258-50.60835555-83.13362963-118.57161482-149.64053333-204.01114074-199.64207408-85.43952592-50.00154075-175.61220741-75.00231111-270.63940741-75.00231112s-185.19988148 25.12213333-270.63940741 75.3664S87.95780741 263.85066667 37.34945185 346.62020741000003c-7.16041482 12.62174815-10.8013037 25.12213333-10.8013037 37.37979259 0 12.25765925 3.64088889 24.75804445 10.8013037 37.37979259C87.95780741 504.14933333 155.92106667 570.53487408 241.36059259 620.77914075s175.61220741 75.3664 270.63940741 75.3664 185.19988148-25.12213333 270.63940741-75.3664S936.04219259 504.14933333 986.65054815 421.37979259c7.16041482-12.74311111 10.8013037-25.2434963 10.8013037-37.50115556z m-69.29825185 0c-54.97742222 85.1968-123.79022222 149.03371852-206.4384 191.3893926 21.9666963-37.62251852 33.01072592-78.15774815 33.01072592-121.96977778 0-66.74962963-23.66577778-124.03294815-71.24005925-171.48586667-47.57428148-47.57428148-104.61487408-71.24005925-171.48586667-71.24005926-66.74962963 0-124.03294815 23.66577778-171.48586667 71.24005926C292.93985185 329.2653037 269.27407408 386.42725925 269.27407408 453.29825185c0 43.69066667 11.04402963 84.34725925 33.01072592 121.96977778C219.51525925 533.03371852 150.70245925 469.31816297 95.8464 384c48.05973333-74.03140741 108.25576297-133.01380741 180.70945185-176.82583703 72.33232592-43.93339259 150.85416297-65.90008889 235.44414815-65.90008889s162.99045925 21.9666963 235.44414815 65.90008889c72.33232592 43.69066667 132.64971852 102.67306667 180.70945185 176.70447406zM530.44717037 573.56894815c4.97588148 4.97588148 7.64586667 11.16539259 7.64586666 18.44717037 0 7.16041482-2.54862222 13.34992592-7.64586666 18.44717037-4.97588148 4.97588148-11.16539259 7.64586667-18.44717037 7.64586666-45.14702222 0-83.86180741-16.14127408-116.26571852-48.54518518-32.40391111-32.40391111-48.54518518-71.1186963-48.54518518-116.26571852 0-7.16041482 2.54862222-13.34992592 7.64586667-18.44717037 4.97588148-4.97588148 11.16539259-7.64586667 18.44717036-7.64586666 7.16041482 0 13.34992592 2.54862222 18.44717037 7.64586666 4.97588148 4.97588148 7.64586667 11.16539259 7.64586667 18.44717037 0 31.06891852 11.04402963 57.64740741 33.01072593 79.6141037 21.9666963 21.9666963 48.54518518 33.01072592 79.6141037 33.01072593 7.16041482 0.12136297 13.34992592 2.54862222 18.44717037 7.64586667z"  horiz-adv-x="1024" />

    
    <glyph glyph-name="printing" unicode="&#58929;" d="M189.85984 118.69183999999996H104.64256c-33.65376 0-41.32864 29.26592-41.32864 56.0896v207.53408 186.97216c0 50.36544 45.37344 46.08 80.76288 46.08h776.64768c51.38944 0 43.62752-54.52288 43.62752-89.44128v-361.15456c0-64.15872-90.28608-46.07488-132.77696-46.07488-33.01376 0-33.01376-51.2 0-51.2h90.37824c50.66752 0 93.5936 41.0112 93.5936 92.24704v156.75392 225.28c0 19.94752 1.11104 39.72096-3.90656 59.23328-10.25536 39.87968-50.688 65.5616-90.30656 65.5616H146.46272c-51.09248 0-106.8544-1.0752-128.21504-59.44832-7.43936-20.3264-6.144-41.28768-6.144-62.49984v-384.64c0-50.4832 42.0608-92.48768 92.52864-92.48768H189.8496c33.024-0.00512 33.024 51.19488 0.01024 51.19488zM805.97504-20.623360000000048c-2.9184-57.82528-95.02208-40.96-133.17632-40.96H271.7952c-32.75264 0-42.68544 26.63936-42.68544 54.03136v105.54368 108.07808c0 27.55584 7.80288 56.61184 42.07104 56.61184h477.08672c26.09152 0 49.5104-4.16768 57.27232-34.35008 3.21536-12.50304 0.44032-28.99968 0.44032-41.64096v-83.584l-0.00512-123.72992c0-33.01376 51.2-33.01376 51.2 0v191.2832c0 25.4976 2.50368 52.73088-3.90656 77.66016-10.47552 40.72448-51.47648 65.5616-91.60704 65.5616H354.2272c-51.57888 0-115.2 10.55744-153.62048-31.7184-22.9632-25.2672-22.69696-56.73472-22.69696-88.32v-116.20864c0-69.18656-15.80544-165.58592 71.94112-188.14976 15.90272-4.09088 34.6624-2.26304 50.944-2.26304h459.86816c53.63712 0 93.81888 38.784 96.51712 92.16 1.65888 33.00864-49.54624 32.84992-51.20512-0.00512zM229.10976 650.55744c0 28.30848-5.01248 61.32736 2.07872 88.89344 7.09632 27.5968 35.18464 27.97056 57.69728 27.97056h475.50464c46.59712 0 41.58464-49.34144 41.58464-81.38752v-35.4816c0-33.01888 51.2-33.01888 51.2 0 0 29.32736 3.17952 60.45184-1.25952 89.51808-6.96832 45.68064-46.6432 78.55104-92.62592 78.55104H362.28096c-46.35648 0-115.33824 11.2128-152.6528-22.69696-41.19552-37.44256-31.7184-95.14496-31.7184-145.37216 0-33.01376 51.2-33.01376 51.2 0.00512zM833.28512 495.42144c-1.18784-22.07232-32.9472-22.07232-34.13504 0-1.18784 22.0928 32.95232 21.95968 34.13504 0 1.77152-32.83456 52.98176-33.00864 51.2 0-2.0736 38.5536-29.71136 66.19136-68.26496 68.26496-38.47168 2.0736-66.36032-32.82432-68.27008-68.26496-2.06848-38.47168 32.82944-66.36032 68.27008-68.26496 38.47168-2.0736 66.3552 32.82944 68.26496 68.26496 1.78176 33.00864-49.42848 32.83456-51.2 0z"  horiz-adv-x="1024" />

    
    <glyph glyph-name="weather-shower" unicode="&#58932;" d="M559.85506016 213.32281787a26.20289092 26.20289092 0 0 1-32.09854131-18.60405204l-60.79070742-227.70312276a26.20289092 26.20289092 0 0 1 50.57158008-13.1014459l61.05273573 227.8341378A26.20289092 26.20289092 0 0 1 559.85506016 213.32281787zM703.97096153 213.32281787a26.20289092 26.20289092 0 0 1-32.09854219-18.60405204l-60.79070655-227.70312276a26.20289092 26.20289092 0 0 1 50.57157921-13.1014459l61.05273573 227.8341378A26.20289092 26.20289092 0 0 1 703.97096153 213.32281787zM662.04633536 676.7209464800001L509.67652432 433.42710263h95.24750888L566.79882646 283.67758096l152.50082608 205.82370878h-95.37852392L662.04633536 676.7209464800001zM859.09207607 74.05445272999998h-68.9136038a26.20289092 26.20289092 0 0 0 0 52.40578185h68.9136038A223.641675 223.641675 0 0 1 1083.91288115 353.63929981 229.79935459 229.79935459 0 0 1 926.69553477 571.90938193l-13.1014459 4.58550616-4.32347695 12.05332998a287.3147001 287.3147001 0 0 1-538.46941026 11.79130078l-6.15767959-16.63883614H343.55019482A230.06138291 230.06138291 0 0 1 114.40591279 353.63929981C114.40591279 224.19701778 209.12936416 126.46023457000001 334.77222675 126.46023457000001H428.84060557a26.20289092 26.20289092 0 0 0 0-52.40578184h-94.06837882C181.74734316 74.05445272999998 62.00013096 196.81499677 62.00013096 353.63929981a282.72919395 282.72919395 0 0 0 267.79354628 282.59817978 339.72048193 339.72048193 0 0 0 625.06996524-18.34202373A282.33615059 282.33615059 0 0 0 1136.31866299 353.63929981 275.13035596 275.13035596 0 0 0 859.09207607 74.05445272999998z"  horiz-adv-x="1222" />

    
    <glyph glyph-name="switch" unicode="&#58887;" d="M96 480h832c0.32 0 0.576 0.192 0.896 0.192a30.656 30.656 0 0 1 30.976 30.976c-0.064 0.256 0.128 0.512 0.128 0.832a31.424 31.424 0 0 1-14.912 26.368l-188.48 188.48a30.72 30.72 0 1 1-43.456-43.456L852.544 544H96a32 32 0 0 1 0-64z m832-192H96c-0.32 0-0.576-0.192-0.896-0.192a30.528 30.528 0 0 1-30.976-30.976c0.064-0.256-0.128-0.512-0.128-0.832 0-11.264 6.144-20.672 14.912-26.368l188.48-188.48a30.72 30.72 0 1 1 43.456 43.456L171.456 224H928a32 32 0 0 1 0 64z"  horiz-adv-x="1024" />

    
    <glyph glyph-name="edit" unicode="&#58889;" d="M624.03125 661.6875L232.53125 270.1875c-11.34375-11.34375-11.34375-29.8125 0-41.25l123.65625-123.65625c11.34375-11.34375 29.8125-11.34375 41.25 0l391.5 391.5c11.34375 11.34375 11.34375 29.8125 0 41.25L665.28125 661.6875c-11.4375 11.34375-29.8125 11.34375-41.25 0z m144.28125 103.03125l123.65625-123.65625c11.34375-11.34375 11.34375-29.8125 0-41.25l-41.25-41.25c-11.34375-11.34375-29.8125-11.34375-41.25 0l-123.5625 123.75c-11.34375 11.34375-11.34375 29.8125 0 41.25l41.25 41.25c11.25 11.25 29.71875 11.25 41.15625-0.09375zM214.4375 218.90625L346.0625 87.1875c7.59375-7.59375 4.59375-20.625-5.625-24.09375L141.59375-4.125c-11.4375-3.84375-22.3125 7.03125-18.46875 18.46875l67.21875 198.84375c3.375 10.3125 16.40625 13.3125 24.09375 5.71875z"  horiz-adv-x="1024" />

    
    <glyph glyph-name="reduce" unicode="&#58958;" d="M822.61333333 343.03999999999996H201.38666667c-22.528 0-40.96 18.432-40.96 40.96s18.432 40.96 40.96 40.96h621.22666666c22.528 0 40.96-18.432 40.96-40.96s-18.432-40.96-40.96-40.96z"  horiz-adv-x="1024" />

    
    <glyph glyph-name="save" unicode="&#58898;" d="M218.843 687.532c-4.55-2.434-7.941-5.825-10.375-10.375-3.3-6.171-4.468-12.218-4.468-32.074v-522.166c0-19.856 1.168-25.903 4.468-32.074 2.434-4.55 5.825-7.941 10.375-10.375 6.171-3.3 12.218-4.468 32.074-4.468h522.166c19.856 0 25.903 1.168 32.074 4.468 4.55 2.434 7.941 5.825 10.375 10.375 3.3 6.171 4.468 12.218 4.468 32.074V538.8240000000001c0 12.479-0.295 16.284-1.164 20.053-0.62 2.694-1.514 4.85-2.98 7.195-2.05 3.279-4.533 6.178-13.357 15.002L709.074 674.5c-8.824 8.824-11.723 11.307-15.002 13.358-2.344 1.465-4.5 2.359-7.195 2.98-3.769 0.868-7.574 1.163-20.053 1.163H250.917c-19.856 0-25.903-1.168-32.074-4.468zM250.917 752h415.907c16.624 0 24.466-0.608 33.529-2.696 9.186-2.117 17.54-5.578 25.533-10.576 7.885-4.932 13.86-10.047 25.615-21.802l93.425-93.425c11.755-11.756 16.87-17.73 21.802-25.615 4.998-7.993 8.459-16.347 10.576-25.533 2.088-9.063 2.696-16.905 2.696-33.53v-415.906c0-28.914-2.975-44.318-11.56-60.37-8.025-15.006-19.98-26.962-34.987-34.987-16.052-8.585-31.456-11.56-60.37-11.56H250.917c-28.914 0-44.318 2.975-60.37 11.56-15.006 8.025-26.962 19.98-34.987 34.987-8.585 16.052-11.56 31.456-11.56 60.37V645.083c0 28.914 2.975 44.318 11.56 60.37 8.025 15.006 19.98 26.962 34.987 34.987 16.052 8.585 31.456 11.56 60.37 11.56zM674 692.525h60v-199.686c0-30.316-3.854-46.832-14.731-63.661-9.743-15.074-23.834-26.734-41.15-34.397C659.975 386.75 642.757 384 608.723 384H415.277c-34.034 0-51.252 2.751-69.396 10.78-17.316 7.664-31.407 19.324-41.15 34.398C293.854 446.008 290 462.523 290 492.839V692.12h60v-199.28c0-11.255 0.63-18.6 1.75-23.393 0.7-3.004 1.507-4.814 3.373-7.7 3.212-4.971 8.132-9.042 15.04-12.099 9.385-4.153 18.738-5.648 45.114-5.648h193.446c26.376 0 35.73 1.495 45.115 5.648 6.907 3.057 11.827 7.128 15.04 12.098 1.865 2.887 2.672 4.697 3.373 7.7 1.118 4.794 1.749 12.139 1.749 23.393V692.525z"  horiz-adv-x="1024" />

    
    <glyph glyph-name="time" unicode="&#58977;" d="M512 32c194.4 0 352 157.6 352 352S706.4 736 512 736 160 578.4 160 384s157.6-352 352-352z m0-64C282.24-32 96 154.24 96 384S282.24 800 512 800s416-186.24 416-416-186.24-416-416-416zM512 352h192a32 32 0 0 0 0-64h-224a32 32 0 0 0-32 32V608a32 32 0 0 0 64 0v-256z"  horiz-adv-x="1024" />

    
    <glyph glyph-name="previewfile" unicode="&#58984;" d="M614.4-128H128c-70.656 0-128 57.344-128 128V768C0 838.656 57.344 896 128 896h614.4c70.656 0 128-57.344 128-128v-230.4c0-14.336-11.264-25.6-25.6-25.6s-25.6 11.264-25.6 25.6V768c0 42.496-34.304 76.8-76.8 76.8H128c-42.496 0-76.8-34.304-76.8-76.8v-768c0-42.496 34.304-76.8 76.8-76.8h486.4c14.336 0 25.6-11.264 25.6-25.6s-11.264-25.6-25.6-25.6zM691.2 640H179.2c-14.336 0-25.6 11.264-25.6 25.6s11.264 25.6 25.6 25.6h512c14.336 0 25.6-11.264 25.6-25.6s-11.264-25.6-25.6-25.6zM384 452.096H179.2c-14.336 0-25.6 11.264-25.6 25.6s11.264 25.6 25.6 25.6h204.8c14.336 0 25.6-11.264 25.6-25.6s-11.264-25.6-25.6-25.6zM281.6 264.70399999999995H179.2c-14.336 0-25.6 11.264-25.6 25.6s11.264 25.6 25.6 25.6h102.4c14.336 0 25.6-11.264 25.6-25.6s-11.264-25.6-25.6-25.6zM332.8 76.79999999999995H179.2c-14.336 0-25.6 11.264-25.6 25.6s11.264 25.6 25.6 25.6h153.6c14.336 0 25.6-11.264 25.6-25.6s-11.264-25.6-25.6-25.6zM640 0c-141.312 0-256 114.688-256 256s114.688 256 256 256 256-114.688 256-256-114.688-256-256-256z m0 460.8c-113.152 0-204.8-91.648-204.8-204.8s91.648-204.8 204.8-204.8 204.8 91.648 204.8 204.8-91.648 204.8-204.8 204.8zM998.4-128c-6.656 0-13.312 2.56-17.92 7.68l-189.44 189.44c-10.24 10.24-10.24 26.112 0 36.352s26.112 10.24 36.352 0l189.44-189.44c10.24-10.24 10.24-26.112 0-36.352-5.12-5.12-11.776-7.68-18.432-7.68z"  horiz-adv-x="1024" />

    
    <glyph glyph-name="weather-typhoon" unicode="&#58903;" d="M829.668978 658.22322C803.971487 684.020701 774.974319 705.918563 743.477395 723.516844 675.983986 765.4127530000001 592.992091 783.410995 509.600234 774.211893c-8.69915-0.599941-17.398301-1.399863-26.097451-2.499756 59.894151 40.196075 128.387462 62.893858 198.980568 65.093644 10.998926 0.299971 20.098037 8.69915 21.397911 19.598086 1.299873 10.898936-5.599453 21.19793-16.198419 24.097647-159.184455 43.895713-336.267161-7.199297-462.054877-133.087004-89.0913-88.991309-141.586173-204.08007-147.785568-324.068352-6.199395-120.888195 35.096573-232.177326 116.388634-313.469388 25.69749-25.69749 54.694659-47.695342 86.291573-65.293624 67.293428-41.795918 150.285324-59.794161 233.877161-50.795039 8.69915 0.599941 17.398301 1.399863 26.097451 2.499756-59.894151-40.196075-128.387462-62.893858-198.980568-65.093644-10.998926-0.299971-20.098037-8.69915-21.397911-19.598086-1.299873-10.898936 5.599453-21.19793 16.198419-24.097647 37.696319-10.398984 76.49253-15.498486 115.288741-15.498486 124.987794 0 250.77551 52.494874 346.766136 148.58549 89.0913 88.991309 141.486183 204.08007 147.685578 324.068352 6.299385 120.988185-34.996582 232.277317-116.388634 313.569378z m71.992969-311.169612c-5.599453-108.989357-53.494776-213.679133-134.786837-294.871204-78.092374-78.192364-177.482668-124.687823-278.372815-133.886925 53.294795 21.997852 102.889952 55.09462 145.785763 97.990431 1.999805 1.999805 4.19959 4.19959 6.199394 6.399375 6.999316 7.399277 8.099209 18.598184 2.599747 27.197344-4.19959 6.599356-11.298897 10.298994-18.798165 10.298994-2.299775 0-4.599551-0.399961-6.899326-1.099893-34.696612-11.398887-70.493116-18.398203-106.38961-20.797969-0.299971 0-0.599941 0-0.899912-0.09999-75.192657-8.199199-146.485695 7.199297-206.379846 44.495655-0.299971 0.19998-0.599941 0.399961-0.999903 0.599941-28.097256 15.598477-53.994727 35.196563-76.892491 58.094327-72.29294 72.29294-108.989357 171.683234-103.489893 279.772678C127.937506 530.0357389999999 175.832829 634.725515 257.0249 716.017576c78.092374 78.092374 177.482668 124.687823 278.372815 133.886926-53.294795-21.997852-102.689972-54.994629-145.485792-97.790451l-0.399961-0.399961c-0.799922-0.899912-1.699834-1.699834-2.599746-2.599746-1.199883-1.199883-2.299775-2.299775-3.399668-3.499658-6.999316-7.399277-8.099209-18.598184-2.599747-27.197344 5.499463-8.59916 16.098428-12.398789 25.697491-9.199102 34.696612 11.398887 70.493116 18.398203 106.38961 20.797969 0.299971 0 0.599941 0 0.999903 0.099991 73.892784 8.199199 147.185626-7.599258 206.379845-44.495655 0.299971-0.19998 0.599941-0.399961 0.999903-0.599942 28.097256-15.598477 53.994727-35.096573 76.892491-58.094326 72.29294-72.39293 108.989357-171.783224 103.389903-279.872669zM377.713114 518.436871c-73.992774-73.992774-73.992774-194.481008 0-268.673762 36.996387-36.996387 85.591641-55.494581 134.286886-55.494581 48.595254 0 97.290499 18.498194 134.386876 55.494581 73.992774 73.992774 73.992774 194.481008 0 268.673762-74.092764 73.892784-194.580998 73.892784-268.673762 0z m237.176838-237.176838c-56.794454-56.694463-149.085441-56.694463-205.679914 0-56.694463 56.794454-56.694463 149.085441 0 205.679914 56.794454 56.694463 149.085441 56.694463 205.679914 0 56.594473-56.794454 56.594473-149.085441 0-205.679914z"  horiz-adv-x="1024" />

    
    <glyph glyph-name="weather-hail" unicode="&#58904;" d="M858.8 579.4C854.3 723.1 736 838.6 591.2 838.6c-4.1 0-8.4-0.1-13.5-0.4l-3.3-0.2c-3.7-0.2-7.3-0.5-11-0.9l-2.4-0.3C470.9 826.6 392.8 772 352 690.7c0-0.1-0.1-0.2-0.1-0.3-1-2-2-4-2.9-6-19.5 15.7-44.2 24.7-69.9 24.7-61.5 0-111.5-50-111.5-111.5 0-6.1 0.5-12.1 1.5-18.1C74.9 574.6 0 496.6 0 401.4 0 303 80.1 222.89999999999998 178.5 222.89999999999998h667.1c98.4 0 178.5 80.1 178.5 178.5-0.1 93.9-73.1 171.2-165.3 178z m-13.3-311.9h-667c-73.8 0-133.9 60-133.9 133.9s60 133.9 133.9 133.9c6 0 12.2-0.4 18.5-1.3 8.3-1.1 16.5 2.4 21.3 9.3 4.8 6.9 5.4 15.8 1.4 23.2-5.2 9.7-7.8 20.2-7.8 31.2 0 36.9 30 66.9 66.9 66.9 23.9 0 46.1-12.9 58.1-33.8 4.4-7.7 13-12.1 21.9-11.1 8.8 1 16.3 7.2 18.8 15.7 1 3.2 2.1 6.7 3.7 10.9l0.9 2.5c1.3 3.4 2.6 6.7 4.1 10.2l0.1 0.3c1.6 3.6 3.3 7.4 5.2 11.2 0 0.1 0.1 0.2 0.1 0.3 34 67.7 99.1 113.2 174.1 121.7l2.1 0.2c3 0.3 6.1 0.6 9.2 0.8l2.8 0.2c4.3 0.2 7.9 0.3 11.3 0.3 123 0 223.1-100.1 223.1-223.1 0-3.9-0.1-8-0.4-12.5-0.3-6.3 2-12.5 6.5-17s10.7-6.8 17-6.5c2.7 0.2 5.3 0.3 8 0.3 73.8 0 133.9-60 133.9-133.9s-60-133.8-133.8-133.8zM779.7 197.10000000000002c-36.9 0-66.9-30-66.9-66.9s30-66.9 66.9-66.9 66.9 30 66.9 66.9-30 66.9-66.9 66.9z m0-89.3c-12.3 0-22.3 10-22.3 22.3s10 22.3 22.3 22.3 22.3-10 22.3-22.3-10-22.3-22.3-22.3zM512 152.39999999999998c-61.5 0-111.5-50-111.5-111.5s50-111.5 111.5-111.5 111.5 50 111.5 111.5-50 111.5-111.5 111.5z m0-178.4c-36.9 0-66.9 30-66.9 66.9s30 66.9 66.9 66.9 66.9-30 66.9-66.9-30-66.9-66.9-66.9z"  horiz-adv-x="1024" />

    
    </font>
</defs>
</svg>
